<?xml version="1.0" encoding="UTF-8" standalone="no"?>
<!-- Created with Inkscape (http://www.inkscape.org/) -->

<svg
   width="25.278999mm"
   height="17.497999mm"
   viewBox="-1 -1 25.278999 17.497999"
   version="1.1"
   id="svg5453"
   inkscape:version="1.2.2 (b0a8486541, 2022-12-01)"
   sodipodi:docname="1st.svg"
   xmlns:inkscape="http://www.inkscape.org/namespaces/inkscape"
   xmlns:sodipodi="http://sodipodi.sourceforge.net/DTD/sodipodi-0.dtd"
   xmlns="http://www.w3.org/2000/svg"
   xmlns:svg="http://www.w3.org/2000/svg">
  <sodipodi:namedview
     id="namedview5455"
     pagecolor="#ffffff"
     bordercolor="#000000"
     borderopacity="0.25"
     inkscape:showpageshadow="2"
     inkscape:pageopacity="0.0"
     inkscape:pagecheckerboard="0"
     inkscape:deskcolor="#d1d1d1"
     inkscape:document-units="mm"
     showgrid="false"
     inkscape:zoom="5.6877229"
     inkscape:cx="41.668696"
     inkscape:cy="50.547469"
     inkscape:window-width="1854"
     inkscape:window-height="1131"
     inkscape:window-x="66"
     inkscape:window-y="32"
     inkscape:window-maximized="1"
     inkscape:current-layer="layer1" />
  <defs
     id="defs5450" />
  <g
     inkscape:label="Layer 1"
     inkscape:groupmode="layer"
     id="layer1"
     transform="translate(-74.784548,-137.41239)">
    <g
       id="g4005"
       transform="translate(0.50010466,0.50021792)">
      <path
         id="path349"
         style="fill:#ffc605;fill-opacity:1;stroke:#010001;stroke-width:0.499999;stroke-linecap:round;stroke-linejoin:round;stroke-dasharray:none;stroke-opacity:1"
         d="m 85.976515,136.66276 a 0.88040732,0.88040732 0 0 0 -0.880506,0.8805 0.88040732,0.88040732 0 0 0 0.65119,0.84987 l -1.682238,6.42174 -3.253318,-5.86508 a 0.88040732,0.88040732 0 0 0 0.364982,-0.71332 0.88040732,0.88040732 0 0 0 -0.880506,-0.87964 0.88040732,0.88040732 0 0 0 -0.879629,0.87964 0.88040732,0.88040732 0 0 0 0.879629,0.88049 0.88040732,0.88040732 0 0 0 0.128655,-0.0102 l 0.291461,6.74646 -5.162246,-5.08961 a 0.88040732,0.88040732 0 0 0 0.24157,-0.60568 0.88040732,0.88040732 0 0 0 -0.880505,-0.87963 0.88040732,0.88040732 0 0 0 -0.880506,0.87963 0.88040732,0.88040732 0 0 0 0.880506,0.88052 0.88040732,0.88040732 0 0 0 0.266952,-0.0412 c 0.717762,1.82978 2.175004,5.66429 2.175004,6.64492 l 0.0017,3.92114 c 5.727653,-0.001 11.455324,-7.8e-4 17.182979,0 l 0.0017,-3.92114 c 0,-0.97772 1.450383,-4.7956 2.17063,-6.63179 a 0.88040732,0.88040732 0 0 0 0.218813,0.0279 0.88040732,0.88040732 0 0 0 0.880506,-0.88051 0.88040732,0.88040732 0 0 0 -0.880506,-0.87963 0.88040732,0.88040732 0 0 0 -0.880505,0.87963 0.88040732,0.88040732 0 0 0 0.267828,0.63281 l -5.135113,5.06247 0.291459,-6.73946 a 0.88040732,0.88040732 0 0 0 0.07439,0.003 0.88040732,0.88040732 0 0 0 0.880505,-0.8805 0.88040732,0.88040732 0 0 0 -0.880505,-0.87963 0.88040732,0.88040732 0 0 0 -0.880505,0.87963 0.88040732,0.88040732 0 0 0 0.404367,0.74046 l -3.238439,5.83795 -1.67961,-6.41036 a 0.88040732,0.88040732 0 0 0 0.700202,-0.86125 0.88040732,0.88040732 0 0 0 -0.880505,-0.8805 z" />
      <circle
         style="fill:#ff1212;fill-opacity:1;stroke:none;stroke-width:0.846858;stroke-linecap:round;stroke-linejoin:round;stroke-dasharray:none;stroke-opacity:1"
         id="circle1549"
         cx="80.312698"
         cy="138.21472"
         r="0.65977478" />
      <circle
         style="fill:#ff1212;fill-opacity:1;stroke:none;stroke-width:0.846858;stroke-linecap:round;stroke-linejoin:round;stroke-dasharray:none;stroke-opacity:1"
         id="circle1553"
         cx="74.920166"
         cy="140.13693"
         r="0.65977478" />
      <circle
         style="fill:#ff1212;fill-opacity:1;stroke:none;stroke-width:0.846858;stroke-linecap:round;stroke-linejoin:round;stroke-dasharray:none;stroke-opacity:1"
         id="circle1555"
         cx="85.970573"
         cy="137.53383"
         r="0.65977478" />
      <circle
         style="fill:#ff1212;fill-opacity:1;stroke:none;stroke-width:0.846858;stroke-linecap:round;stroke-linejoin:round;stroke-dasharray:none;stroke-opacity:1"
         id="circle1557"
         cx="91.529854"
         cy="138.22043"
         r="0.65977478" />
      <circle
         style="fill:#ff1212;fill-opacity:1;stroke:none;stroke-width:0.846858;stroke-linecap:round;stroke-linejoin:round;stroke-dasharray:none;stroke-opacity:1"
         id="circle1559"
         cx="96.941582"
         cy="140.16505"
         r="0.65977478" />
      <g
         id="g1567"
         transform="matrix(1.6937191,0,0,1.6937191,-59.347804,-100.17699)">
        <circle
           style="fill:#ff1212;fill-opacity:1;stroke:none;stroke-width:0.499999;stroke-linecap:round;stroke-linejoin:round;stroke-dasharray:none;stroke-opacity:1"
           id="path1285"
           cx="81.861511"
           cy="146.10905"
           r="0.38954204" />
        <circle
           style="fill:#ff1212;fill-opacity:1;stroke:none;stroke-width:0.499999;stroke-linecap:round;stroke-linejoin:round;stroke-dasharray:none;stroke-opacity:1"
           id="circle1561"
           cx="83.749107"
           cy="145.39481"
           r="0.38954204" />
      </g>
      <circle
         style="fill:#ff1212;fill-opacity:1;stroke:none;stroke-width:0.846858;stroke-linecap:round;stroke-linejoin:round;stroke-dasharray:none;stroke-opacity:1"
         id="circle1563"
         cx="85.7743"
         cy="145.58205"
         r="0.65977478" />
      <g
         id="g1573"
         transform="matrix(-1.6937191,0,0,1.6937191,231.11728,-100.17699)">
        <circle
           style="fill:#ff1212;fill-opacity:1;stroke:none;stroke-width:0.499999;stroke-linecap:round;stroke-linejoin:round;stroke-dasharray:none;stroke-opacity:1"
           id="circle1569"
           cx="81.861511"
           cy="146.10905"
           r="0.38954204" />
        <circle
           style="fill:#ff1212;fill-opacity:1;stroke:none;stroke-width:0.499999;stroke-linecap:round;stroke-linejoin:round;stroke-dasharray:none;stroke-opacity:1"
           id="circle1571"
           cx="83.749107"
           cy="145.39481"
           r="0.38954204" />
      </g>
      <rect
         style="fill:#bd0000;fill-opacity:1;stroke:#000000;stroke-width:0.499999;stroke-linecap:round;stroke-linejoin:round;stroke-dasharray:none;stroke-opacity:1"
         id="rect1653"
         width="18.426527"
         height="3.2695115"
         x="76.733246"
         y="149.39044" />
      <ellipse
         style="fill:#1b05ff;fill-opacity:1;stroke:#ed6d00;stroke-width:0.846858;stroke-linecap:round;stroke-linejoin:round;stroke-dasharray:none;stroke-opacity:1"
         id="path2190"
         cx="85.860916"
         cy="149.41568"
         ry="1.5498915"
         rx="2.3441699" />
      <ellipse
         style="opacity:0.760602;fill:#ffffff;fill-opacity:1;stroke:none;stroke-width:1.13111;stroke-linecap:round;stroke-linejoin:round;stroke-dasharray:none;stroke-opacity:1"
         id="path2456"
         cx="86.73175"
         cy="149.10744"
         rx="0.57104528"
         ry="0.37225577" />
    </g>
  </g>
</svg>
