<?xml version="1.0" encoding="UTF-8" standalone="no"?>
<!-- Created with Inkscape (http://www.inkscape.org/) -->

<svg
   width="23.995001mm"
   height="16.766001mm"
   viewBox="0 0 23.995001 16.766001"
   version="1.1"
   id="svg10322"
   inkscape:version="1.2.2 (b0a8486541, 2022-12-01)"
   sodipodi:docname="blue_shell.svg"
   xmlns:inkscape="http://www.inkscape.org/namespaces/inkscape"
   xmlns:sodipodi="http://sodipodi.sourceforge.net/DTD/sodipodi-0.dtd"
   xmlns="http://www.w3.org/2000/svg"
   xmlns:svg="http://www.w3.org/2000/svg">
  <sodipodi:namedview
     id="namedview10324"
     pagecolor="#ffffff"
     bordercolor="#000000"
     borderopacity="0.25"
     inkscape:showpageshadow="2"
     inkscape:pageopacity="0.0"
     inkscape:pagecheckerboard="0"
     inkscape:deskcolor="#d1d1d1"
     inkscape:document-units="mm"
     showgrid="false"
     inkscape:zoom="6.2045086"
     inkscape:cx="44.9673"
     inkscape:cy="38.762135"
     inkscape:window-width="1854"
     inkscape:window-height="1131"
     inkscape:window-x="66"
     inkscape:window-y="32"
     inkscape:window-maximized="1"
     inkscape:current-layer="g5545" />
  <defs
     id="defs10319" />
  <g
     inkscape:label="Layer 1"
     inkscape:groupmode="layer"
     id="layer1"
     transform="translate(-5.6825806,-81.700396)">
    <g
       id="g5545"
       transform="translate(-6.8858184,41.18963)"
       style="stroke-width:0.5;stroke-dasharray:none">
      <ellipse
         style="fill:#e6dfb2;fill-opacity:1;stroke:#000000;stroke-width:0.79375;stroke-linecap:round;stroke-linejoin:round;stroke-dasharray:none;stroke-opacity:1"
         id="path6435"
         ry="4.927413"
         rx="9.5507536"
         cy="51.452408"
         cx="24.775656" />
      <g
         id="g1380"
         style="fill:#212bc8;fill-opacity:1"
         transform="translate(0.50006901,0.50007168)">
        <rect
           style="fill:#212bc8;fill-opacity:1;stroke:#000000;stroke-width:0.79375;stroke-linecap:round;stroke-linejoin:round;stroke-dasharray:none;stroke-opacity:1"
           id="rect6543"
           width="6.2628059"
           height="4.7269292"
           x="11.951011"
           y="45.724861"
           ry="1.6463701"
           transform="rotate(-8.0303559)" />
        <rect
           style="fill:#212bc8;fill-opacity:1;stroke:#000000;stroke-width:0.79375;stroke-linecap:round;stroke-linejoin:round;stroke-dasharray:none;stroke-opacity:1"
           id="rect6545"
           width="6.2628059"
           height="4.7269292"
           x="-37.030388"
           y="39.000504"
           ry="1.6463701"
           transform="matrix(-0.99019419,-0.13969774,-0.13969774,0.99019419,0,0)" />
        <rect
           style="fill:#212bc8;fill-opacity:1;stroke:#000000;stroke-width:0.79375;stroke-linecap:round;stroke-linejoin:round;stroke-dasharray:none;stroke-opacity:1"
           id="rect6547"
           width="4.061583"
           height="3.8658438"
           x="-54.941414"
           y="20.898235"
           ry="1.6463701"
           transform="matrix(-0.84469558,-0.53524703,-0.53524703,0.84469558,0,0)" />
        <rect
           style="fill:#212bc8;fill-opacity:1;stroke:#000000;stroke-width:0.79375;stroke-linecap:round;stroke-linejoin:round;stroke-dasharray:none;stroke-opacity:1"
           id="rect6549"
           width="4.061583"
           height="3.8658438"
           x="-13.30204"
           y="46.514145"
           ry="1.6463701"
           transform="rotate(-32.360666)" />
        <rect
           style="fill:#212bc8;fill-opacity:1;stroke:#000000;stroke-width:0.79375;stroke-linecap:round;stroke-linejoin:round;stroke-dasharray:none;stroke-opacity:1"
           id="rect6541"
           width="6.2628059"
           height="4.7269292"
           x="21.139091"
           y="47.324242"
           ry="1.6463701" />
        <rect
           style="fill:#212bc8;fill-opacity:1;stroke:#000000;stroke-width:0.79375;stroke-linecap:round;stroke-linejoin:round;stroke-dasharray:none;stroke-opacity:1"
           id="rect6551"
           width="4.061583"
           height="3.8658438"
           x="25.374655"
           y="43.678196"
           ry="1.6463701"
           transform="rotate(9.8842493)"
           inkscape:transform-center-x="-0.048511994"
           inkscape:transform-center-y="0.081525366" />
        <rect
           style="fill:#212bc8;fill-opacity:1;stroke:#000000;stroke-width:0.79375;stroke-linecap:round;stroke-linejoin:round;stroke-dasharray:none;stroke-opacity:1"
           id="rect6553"
           width="4.061583"
           height="3.8658438"
           x="-22.510592"
           y="52.184052"
           ry="1.6463701"
           transform="matrix(-0.98515655,0.17165829,0.17165829,0.98515655,0,0)"
           inkscape:transform-center-x="0.048511034"
           inkscape:transform-center-y="0.081523847" />
      </g>
      <path
         style="color:#000000;fill:#dfdfdf;stroke:#000000;stroke-width:0.79375;stroke-linecap:round;stroke-linejoin:round;stroke-dasharray:none;stroke-opacity:1"
         d="m 16.081045,48.47787 c -1.006378,-0.157465 -2.102312,0.333981 -2.534618,1.362932 a 1.0498309,1.0498309 0 0 0 0.561635,1.375037 1.0498309,1.0498309 0 0 0 1.375036,-0.561635 c 0.02829,-0.06733 0.125346,-0.124864 0.273555,-0.101674 0.148208,0.02319 0.325355,0.04121 0.421225,0.595527 0.152113,0.879479 0.840309,1.475298 1.522709,1.798683 0.6824,0.323386 1.447605,0.483458 2.256223,0.595527 1.617235,0.224139 3.429464,0.221336 4.648012,0.295342 1.279601,0.07771 2.964571,0.128781 4.493078,0.01694 0.764252,-0.05591 1.48894,-0.149243 2.13518,-0.32197 0.64624,-0.172728 1.257448,-0.382433 1.726058,-0.980441 0.384749,-0.490991 0.587584,-0.867749 0.786773,-1.198316 a 1.0498309,1.0498309 0 0 0 0.844873,0.614894 1.0498309,1.0498309 0 0 0 1.074853,-1.026436 c 0,0 0.02023,-0.38961 -0.123464,-0.844873 -0.07184,-0.227632 -0.187842,-0.499761 -0.426067,-0.760144 -0.238224,-0.260383 -0.628081,-0.485802 -1.045803,-0.537426 -0.445384,-0.05505 -0.932932,0.117291 -1.229786,0.34618 -0.296855,0.228894 -0.467964,0.475423 -0.624576,0.711727 -0.313224,0.472607 -0.559747,0.951973 -0.910236,1.399245 0.04701,-0.06 -0.173584,0.128972 -0.614893,0.246926 -0.44131,0.11796 -1.062055,0.206609 -1.745425,0.256608 -1.366743,0.100001 -2.991602,0.05477 -4.212262,-0.01937 -1.33569,-0.08112 -3.093701,-0.08513 -4.488236,-0.278397 -0.697267,-0.09664 -1.297456,-0.249857 -1.643749,-0.413964 -0.346293,-0.164106 -0.350858,-0.230089 -0.355865,-0.259029 -0.218363,-1.26253 -1.157851,-2.154438 -2.16423,-2.311901 z"
         id="path7355" />
      <rect
         style="opacity:0.235699;fill:#000000;fill-opacity:1;stroke:none;stroke-width:1.53434;stroke-linecap:round;stroke-linejoin:round;stroke-dasharray:none;stroke-opacity:1"
         id="rect8214"
         width="0.4031783"
         height="2.4532368"
         x="24.214363"
         y="53.897511"
         ry="0" />
      <g
         id="g8492"
         transform="translate(1.9952,4.5592886)">
        <rect
           style="opacity:0.235699;fill:#000000;fill-opacity:1;stroke:none;stroke-width:1.53434;stroke-linecap:round;stroke-linejoin:round;stroke-dasharray:none;stroke-opacity:1"
           id="rect8477"
           width="0.4031783"
           height="2.4532368"
           x="23.62805"
           y="49.30529"
           ry="0" />
        <rect
           style="opacity:0.235699;fill:#000000;fill-opacity:1;stroke:none;stroke-width:1.53434;stroke-linecap:round;stroke-linejoin:round;stroke-dasharray:none;stroke-opacity:1"
           id="rect8479"
           width="0.4031783"
           height="2.4532368"
           x="21.795666"
           y="50.781826"
           ry="0"
           transform="rotate(-3.6465127)" />
        <rect
           style="opacity:0.235699;fill:#000000;fill-opacity:1;stroke:none;stroke-width:1.53434;stroke-linecap:round;stroke-linejoin:round;stroke-dasharray:none;stroke-opacity:1"
           id="rect8481"
           width="0.4031783"
           height="2.4532368"
           x="16.087061"
           y="53.324097"
           ry="0"
           transform="rotate(-11.30714)" />
        <rect
           style="opacity:0.235699;fill:#000000;fill-opacity:1;stroke:none;stroke-width:1.53434;stroke-linecap:round;stroke-linejoin:round;stroke-dasharray:none;stroke-opacity:1"
           id="rect8483"
           width="0.40317822"
           height="1.8967687"
           x="14.087611"
           y="54.824261"
           ry="0"
           transform="rotate(-14.867735)" />
        <rect
           style="opacity:0.235699;fill:#000000;fill-opacity:1;stroke:none;stroke-width:1.53434;stroke-linecap:round;stroke-linejoin:round;stroke-dasharray:none;stroke-opacity:1"
           id="rect8485"
           width="0.40317822"
           height="1.5539764"
           x="15.576488"
           y="54.88076"
           ry="0"
           transform="rotate(-14.867735)" />
      </g>
      <g
         id="g8504"
         transform="matrix(-0.99795668,-0.06389419,-0.06389419,0.99795668,50.002578,6.25465)">
        <rect
           style="opacity:0.235699;fill:#000000;fill-opacity:1;stroke:none;stroke-width:1.53434;stroke-linecap:round;stroke-linejoin:round;stroke-dasharray:none;stroke-opacity:1"
           id="rect8494"
           width="0.4031783"
           height="2.4532368"
           x="23.62805"
           y="49.30529"
           ry="0" />
        <rect
           style="opacity:0.235699;fill:#000000;fill-opacity:1;stroke:none;stroke-width:1.53434;stroke-linecap:round;stroke-linejoin:round;stroke-dasharray:none;stroke-opacity:1"
           id="rect8496"
           width="0.4031783"
           height="2.4532368"
           x="21.795666"
           y="50.781826"
           ry="0"
           transform="rotate(-3.6465127)" />
        <rect
           style="opacity:0.235699;fill:#000000;fill-opacity:1;stroke:none;stroke-width:1.53434;stroke-linecap:round;stroke-linejoin:round;stroke-dasharray:none;stroke-opacity:1"
           id="rect8498"
           width="0.4031783"
           height="2.4532368"
           x="16.087061"
           y="53.324097"
           ry="0"
           transform="rotate(-11.30714)" />
        <rect
           style="opacity:0.235699;fill:#000000;fill-opacity:1;stroke:none;stroke-width:1.53434;stroke-linecap:round;stroke-linejoin:round;stroke-dasharray:none;stroke-opacity:1"
           id="rect8500"
           width="0.40317822"
           height="1.8967687"
           x="14.087611"
           y="54.824261"
           ry="0"
           transform="rotate(-14.867735)" />
        <rect
           style="opacity:0.235699;fill:#000000;fill-opacity:1;stroke:none;stroke-width:1.53434;stroke-linecap:round;stroke-linejoin:round;stroke-dasharray:none;stroke-opacity:1"
           id="rect8502"
           width="0.40317822"
           height="1.5539764"
           x="15.576488"
           y="54.88076"
           ry="0"
           transform="rotate(-14.867735)" />
      </g>
      <path
         style="fill:#dfdfdf;fill-opacity:1;stroke:#000000;stroke-width:0.529167;stroke-linecap:round;stroke-linejoin:round;stroke-dasharray:none"
         d="m 30.129133,44.478434 -1.135304,-2.935001 -1.915685,2.449573 c 0.481802,0.87707 2.394314,1.133114 3.050987,0.485432 z"
         id="path2153"
         sodipodi:nodetypes="ccccc"
         inkscape:transform-center-x="0.92772761"
         inkscape:transform-center-y="0.078577619" />
      <path
         style="fill:#dfdfdf;fill-opacity:1;stroke:#000000;stroke-width:0.529167;stroke-linecap:round;stroke-linejoin:round;stroke-dasharray:none"
         d="m 20.217612,44.210396 1.135304,-2.935001 1.915685,2.449573 c -0.481802,0.87707 -2.394314,1.133114 -3.050987,0.485432 z"
         id="path2155"
         sodipodi:nodetypes="ccccc"
         inkscape:transform-center-x="-0.92772743"
         inkscape:transform-center-y="0.078577619" />
      <path
         style="fill:#dfdfdf;fill-opacity:1;stroke:#000000;stroke-width:0.529167;stroke-linecap:round;stroke-linejoin:round;stroke-dasharray:none"
         d="m 15.279406,46.586819 0.108297,-1.95357 1.671295,1.077478 c -0.120063,0.611317 -1.245302,1.131986 -1.779589,0.876094 z"
         id="path2157"
         sodipodi:nodetypes="ccccc"
         inkscape:transform-center-x="-0.79648229"
         inkscape:transform-center-y="-0.021466112" />
      <path
         style="fill:#dfdfdf;fill-opacity:1;stroke:#000000;stroke-width:0.529167;stroke-linecap:round;stroke-linejoin:round;stroke-dasharray:none"
         d="m 34.5745,47.312046 -0.108297,-1.95357 -1.671295,1.077478 c 0.120063,0.611317 1.245302,1.131986 1.779589,0.876094 z"
         id="path2161"
         sodipodi:nodetypes="ccccc"
         inkscape:transform-center-x="0.79648274"
         inkscape:transform-center-y="-0.021466112" />
      <path
         style="fill:#dfdfdf;fill-opacity:1;stroke:#000000;stroke-width:0.529167;stroke-linecap:round;stroke-linejoin:round;stroke-dasharray:none"
         d="m 30.949656,49.987539 -0.108297,-1.95357 -1.671295,1.077478 c 0.120063,0.611317 1.245302,1.131986 1.779589,0.876094 z"
         id="path2165"
         sodipodi:nodetypes="ccccc"
         inkscape:transform-center-x="0.79648274"
         inkscape:transform-center-y="-0.021466112" />
      <path
         style="fill:#dfdfdf;fill-opacity:1;stroke:#000000;stroke-width:0.529167;stroke-linecap:round;stroke-linejoin:round;stroke-dasharray:none"
         d="m 18.72476,49.946969 0.108297,-1.95357 1.671295,1.077478 c -0.120063,0.611317 -1.245302,1.131986 -1.779589,0.876094 z"
         id="path2167"
         sodipodi:nodetypes="ccccc"
         inkscape:transform-center-x="-0.79648229"
         inkscape:transform-center-y="-0.021466112" />
      <path
         style="fill:#dfdfdf;fill-opacity:1;stroke:#000000;stroke-width:0.529167;stroke-linecap:round;stroke-linejoin:round;stroke-dasharray:none"
         d="m 26.362558,48.417974 -1.571841,-1.918618 -1.517501,1.906667 c 0.610568,0.792839 2.539725,0.752654 3.089341,0.01196 z"
         id="path2163"
         sodipodi:nodetypes="ccccc"
         inkscape:transform-center-x="0.040695403"
         inkscape:transform-center-y="-0.18813186" />
    </g>
  </g>
</svg>
