<?xml version="1.0" encoding="UTF-8" standalone="no"?>
<!-- Created with Inkscape (http://www.inkscape.org/) -->

<svg
   width="53.98mm"
   height="85.599998mm"
   viewBox="0 0 53.98 85.599998"
   version="1.1"
   id="svg5"
   inkscape:version="1.2.2 (b0a8486541, 2022-12-01)"
   sodipodi:docname="card - back.svg"
   xml:space="preserve"
   xmlns:inkscape="http://www.inkscape.org/namespaces/inkscape"
   xmlns:sodipodi="http://sodipodi.sourceforge.net/DTD/sodipodi-0.dtd"
   xmlns="http://www.w3.org/2000/svg"
   xmlns:svg="http://www.w3.org/2000/svg"><sodipodi:namedview
     id="namedview7"
     pagecolor="#ffffff"
     bordercolor="#000000"
     borderopacity="0.25"
     inkscape:showpageshadow="2"
     inkscape:pageopacity="0.0"
     inkscape:pagecheckerboard="0"
     inkscape:deskcolor="#d1d1d1"
     inkscape:document-units="mm"
     showgrid="false"
     inkscape:zoom="1.4685299"
     inkscape:cx="29.961937"
     inkscape:cy="211.43594"
     inkscape:window-width="1854"
     inkscape:window-height="1131"
     inkscape:window-x="66"
     inkscape:window-y="32"
     inkscape:window-maximized="1"
     inkscape:current-layer="layer1" /><defs
     id="defs2" /><g
     inkscape:label="Layer 1"
     inkscape:groupmode="layer"
     id="layer1"><rect
       style="fill:#565656;stroke-width:0.502453;fill-opacity:1"
       id="rect236"
       width="53.98"
       height="85.599998"
       x="-1.6098234e-15"
       y="-1.2767565e-15"
       ry="4.2823" /><g
       id="g1050"
       style="opacity:0.5"><path
         id="path349"
         style="fill:#828282;fill-opacity:1;stroke:#010001;stroke-width:0.759764;stroke-linecap:round;stroke-linejoin:round;stroke-dasharray:none;stroke-opacity:1"
         d="m 27.069883,30.646163 a 1.337806,1.337806 0 0 0 -1.337956,1.337947 1.337806,1.337806 0 0 0 0.989503,1.291404 l -2.556213,9.758031 -4.943516,-8.912169 a 1.337806,1.337806 0 0 0 0.554601,-1.083912 1.337806,1.337806 0 0 0 -1.337956,-1.33664 1.337806,1.337806 0 0 0 -1.336623,1.33664 1.337806,1.337806 0 0 0 1.336623,1.337932 1.337806,1.337806 0 0 0 0.195495,-0.0155 l 0.442884,10.251454 -7.844192,-7.733819 a 1.337806,1.337806 0 0 0 0.367073,-0.92035 1.337806,1.337806 0 0 0 -1.337954,-1.336624 1.337806,1.337806 0 0 0 -1.337956,1.336624 1.337806,1.337806 0 0 0 1.337956,1.337978 1.337806,1.337806 0 0 0 0.405642,-0.0626 c 1.090661,2.780407 3.304985,8.607063 3.304985,10.097161 l 0.0026,5.958293 c 8.703346,-0.0015 17.406718,-0.0012 26.110066,0 l 0.0026,-5.958293 c 0,-1.485676 2.203901,-7.287062 3.298339,-10.077209 a 1.337806,1.337806 0 0 0 0.332493,0.04239 1.337806,1.337806 0 0 0 1.337956,-1.337962 1.337806,1.337806 0 0 0 -1.337956,-1.336625 1.337806,1.337806 0 0 0 -1.337955,1.336625 1.337806,1.337806 0 0 0 0.406973,0.961575 L 34.9844,44.611092 35.427281,34.370275 a 1.337806,1.337806 0 0 0 0.113038,0.0046 1.337806,1.337806 0 0 0 1.337954,-1.337947 1.337806,1.337806 0 0 0 -1.337954,-1.336624 1.337806,1.337806 0 0 0 -1.337955,1.336624 1.337806,1.337806 0 0 0 0.614448,1.125152 l -4.920908,8.870945 -2.552219,-9.740739 a 1.337806,1.337806 0 0 0 1.063979,-1.308696 1.337806,1.337806 0 0 0 -1.337955,-1.337947 z" /><circle
         style="fill:#5e5e5e;fill-opacity:1;stroke:none;stroke-width:1.28683;stroke-linecap:round;stroke-linejoin:round;stroke-dasharray:none;stroke-opacity:1"
         id="circle1549"
         cx="18.463539"
         cy="33.004417"
         r="1.0025481" /><circle
         style="fill:#5e5e5e;fill-opacity:1;stroke:none;stroke-width:1.28683;stroke-linecap:round;stroke-linejoin:round;stroke-dasharray:none;stroke-opacity:1"
         id="circle1553"
         cx="10.26942"
         cy="35.925274"
         r="1.0025481" /><circle
         style="fill:#5e5e5e;fill-opacity:1;stroke:none;stroke-width:1.28683;stroke-linecap:round;stroke-linejoin:round;stroke-dasharray:none;stroke-opacity:1"
         id="circle1555"
         cx="27.060854"
         cy="31.969778"
         r="1.0025481" /><circle
         style="fill:#5e5e5e;fill-opacity:1;stroke:none;stroke-width:1.28683;stroke-linecap:round;stroke-linejoin:round;stroke-dasharray:none;stroke-opacity:1"
         id="circle1557"
         cx="35.50835"
         cy="33.013088"
         r="1.0025481" /><circle
         style="fill:#5e5e5e;fill-opacity:1;stroke:none;stroke-width:1.28683;stroke-linecap:round;stroke-linejoin:round;stroke-dasharray:none;stroke-opacity:1"
         id="circle1559"
         cx="43.73164"
         cy="35.968006"
         r="1.0025481" /><g
         id="g1567"
         transform="matrix(2.5736583,0,0,2.5736583,-193.7549,-329.23913)"
         style="fill:#5e5e5e;fill-opacity:1"><circle
           style="fill:#5e5e5e;fill-opacity:1;stroke:none;stroke-width:0.499999;stroke-linecap:round;stroke-linejoin:round;stroke-dasharray:none;stroke-opacity:1"
           id="path1285"
           cx="81.861511"
           cy="146.10905"
           r="0.38954204" /><circle
           style="fill:#5e5e5e;fill-opacity:1;stroke:none;stroke-width:0.499999;stroke-linecap:round;stroke-linejoin:round;stroke-dasharray:none;stroke-opacity:1"
           id="circle1561"
           cx="83.749107"
           cy="145.39481"
           r="0.38954204" /></g><circle
         style="fill:#5e5e5e;fill-opacity:1;stroke:none;stroke-width:1.28683;stroke-linecap:round;stroke-linejoin:round;stroke-dasharray:none;stroke-opacity:1"
         id="circle1563"
         cx="26.762609"
         cy="44.199295"
         r="1.0025481" /><g
         id="g1573"
         transform="matrix(-2.5736583,0,0,2.5736583,247.61575,-329.23913)"
         style="fill:#5e5e5e;fill-opacity:1"><circle
           style="fill:#5e5e5e;fill-opacity:1;stroke:none;stroke-width:0.499999;stroke-linecap:round;stroke-linejoin:round;stroke-dasharray:none;stroke-opacity:1"
           id="circle1569"
           cx="81.861511"
           cy="146.10905"
           r="0.38954204" /><circle
           style="fill:#5e5e5e;fill-opacity:1;stroke:none;stroke-width:0.499999;stroke-linecap:round;stroke-linejoin:round;stroke-dasharray:none;stroke-opacity:1"
           id="circle1571"
           cx="83.749107"
           cy="145.39481"
           r="0.38954204" /></g><rect
         style="fill:#5e5e5e;fill-opacity:1;stroke:#000000;stroke-width:0.759764;stroke-linecap:round;stroke-linejoin:round;stroke-dasharray:none;stroke-opacity:1"
         id="rect1653"
         width="27.999676"
         height="4.9681234"
         x="13.02445"
         y="49.986267" /><ellipse
         style="fill:#828282;fill-opacity:1;stroke:#777777;stroke-width:1.28683;stroke-linecap:round;stroke-linejoin:round;stroke-dasharray:none;stroke-opacity:1"
         id="path2190"
         cx="26.894226"
         cy="50.024616"
         ry="2.3551078"
         rx="3.5620382" /><ellipse
         style="opacity:0.760602;fill:#ffffff;fill-opacity:1;stroke:none;stroke-width:1.71876;stroke-linecap:round;stroke-linejoin:round;stroke-dasharray:none;stroke-opacity:1"
         id="path2456"
         cx="28.217485"
         cy="49.556232"
         rx="0.8677209"
         ry="0.5656541" /></g></g></svg>
