<?xml version="1.0" encoding="UTF-8" standalone="no"?>
<!-- Created with Inkscape (http://www.inkscape.org/) -->

<svg
   width="48.918999mm"
   height="49.375mm"
   viewBox="-1 -1 48.919 49.374999"
   version="1.1"
   id="svg5453"
   inkscape:version="1.2.2 (b0a8486541, 2022-12-01)"
   sodipodi:docname="dust_cloud.svg"
   xml:space="preserve"
   xmlns:inkscape="http://www.inkscape.org/namespaces/inkscape"
   xmlns:sodipodi="http://sodipodi.sourceforge.net/DTD/sodipodi-0.dtd"
   xmlns="http://www.w3.org/2000/svg"
   xmlns:svg="http://www.w3.org/2000/svg"><sodipodi:namedview
     id="namedview5455"
     pagecolor="#ffffff"
     bordercolor="#000000"
     borderopacity="0.25"
     inkscape:showpageshadow="2"
     inkscape:pageopacity="0.0"
     inkscape:pagecheckerboard="0"
     inkscape:deskcolor="#d1d1d1"
     inkscape:document-units="mm"
     showgrid="false"
     inkscape:zoom="3.5584106"
     inkscape:cx="111.84769"
     inkscape:cy="89.506253"
     inkscape:window-width="1854"
     inkscape:window-height="1131"
     inkscape:window-x="66"
     inkscape:window-y="32"
     inkscape:window-maximized="1"
     inkscape:current-layer="layer1" /><defs
     id="defs5450" /><g
     inkscape:label="Layer 1"
     inkscape:groupmode="layer"
     id="layer1"
     transform="translate(-62.747391,-126.82214)"><g
       id="g2512"
       transform="translate(0.50010324,0.50005812)"><g
         id="g2503"
         transform="matrix(0.18272025,0,0,0.18272025,58.82973,115.89461)"><path
           style="fill:#e3e3e3;stroke-width:0.352778;fill-opacity:1"
           d="m 159.961,318.73051 c -3.79817,-0.72513 -7.43344,-2.23661 -9.12142,-3.79255 -0.80882,-0.74554 -2.20061,-2.61194 -3.09286,-4.14756 -0.89226,-1.53562 -1.77433,-2.886 -1.96016,-3.00085 -0.18583,-0.11485 -0.70695,-0.0602 -1.15805,0.12148 -0.4511,0.18167 -2.17422,0.89272 -3.82916,1.58012 -5.29808,2.20061 -8.51939,2.79241 -15.33547,2.81733 -4.44008,0.0162 -6.86739,-0.14616 -9.34861,-0.62544 -8.68501,-1.67763 -17.978844,-7.53735 -23.561189,-14.85523 -3.933006,-5.15577 -6.777704,-13.77064 -6.777704,-20.52558 0,-2.06206 -0.06545,-2.24214 -0.988233,-2.71934 -1.257815,-0.65044 -6.778721,-1.27097 -11.307925,-1.27097 -4.090882,0 -6.877911,-0.72414 -11.002032,-2.85859 -4.836732,-2.50328 -13.123852,-9.8788 -16.216546,-14.43271 -6.624211,-9.75398 -8.167892,-25.16189 -3.666049,-36.5919 1.01256,-2.57085 1.95079,-4.25693 3.563747,-6.40433 0.640341,-0.85252 1.164188,-1.64627 1.1641,-1.76389 -8.5e-5,-0.11762 -2.996301,-0.21386 -6.658258,-0.21386 h -6.658097 l -3.131298,-1.5875 c -2.394577,-1.214 -3.881069,-2.30855 -6.318063,-4.65218 -2.784106,-2.67745 -3.417618,-3.52437 -5.013805,-6.70278 -2.628021,-5.23305 -3.328236,-8.13777 -3.527467,-14.63312 -0.200008,-6.52067 0.1599,-9.39689 2.183273,-17.44774 3.843821,-15.29427 9.440836,-25.31031 16.766341,-30.0039 1.460879,-0.93602 2.837245,-1.70187 3.058592,-1.7019 0.221343,-2e-5 1.094468,-0.31406 1.940278,-0.69785 0.845806,-0.38379 1.957409,-0.70129 2.470224,-0.70556 1.102455,-0.009 1.360661,-0.53951 1.360661,-2.79479 0,-3.3437 2.061982,-8.26284 4.543174,-10.83837 1.082026,-1.12317 4.191381,-3.38552 7.213075,-5.24819 0.502913,-0.31001 0.404453,-0.60527 -0.812207,-2.43561 -3.000016,-4.51319 -3.197935,-10.57887 -0.522817,-16.022827 3.210034,-6.532545 13.114317,-13.39804 20.989393,-14.549528 4.413705,-0.64537 9.159039,0.489693 11.804661,2.823626 1.435682,1.266535 1.499052,1.221553 4.295666,-3.049239 3.721195,-5.682741 8.201611,-10.208793 11.782285,-11.902302 3.50266,-1.656609 7.33339,-2.113347 11.60189,-1.383297 3.8316,0.655326 9.13609,3.180526 12.43923,5.921693 2.71594,2.253874 3.26761,2.351663 6.12866,1.086371 2.59342,-1.146935 5.00129,-1.14862 8.34151,-0.0058 1.40842,0.481859 3.09863,0.918421 3.75603,0.970139 1.1583,0.09113 1.22376,0.02542 2.11667,-2.124388 1.22332,-2.945344 4.91724,-7.84896 7.39416,-9.815619 3.30031,-2.620422 7.78417,-5.212283 11.5189,-6.658412 l 3.52778,-1.365995 6.60958,-0.146102 c 5.08671,-0.11244 7.24119,-0.01812 9.3509,0.40936 4.34665,0.880743 8.71207,2.508046 13.11582,4.889196 3.49006,1.887111 4.59215,2.715943 7.62413,5.733771 2.92932,2.915647 3.8268,4.078695 5.17227,6.702777 2.70016,5.266134 3.28344,7.841103 3.25639,14.375695 -0.0127,3.055937 0.0573,5.556249 0.15541,5.556249 0.0981,0 0.93829,-0.640729 1.86702,-1.423842 4.24378,-3.578409 10.5557,-5.277235 15.27777,-4.11195 2.45072,0.604778 5.39636,2.094696 7.28771,3.686154 1.77347,1.492275 3.63876,4.289813 6.07461,9.110613 3.13431,6.203107 4.47867,10.770267 4.72144,16.040077 0.19987,4.33845 -0.17075,6.4243 -1.65552,9.31729 -0.39449,0.76863 -0.71725,1.50077 -0.71725,1.62698 0,0.12621 1.02208,0.33418 2.27129,0.46217 6.54956,0.67102 14.86723,5.19511 20.78268,11.30398 3.16222,3.26561 4.30586,4.96126 5.69381,8.44206 1.10676,2.77561 1.1525,3.09379 1.35111,9.39925 0.22997,7.30151 -0.0661,9.55077 -1.92014,14.58538 -3.07449,8.34893 -8.53249,16.13541 -13.90293,19.83417 -1.06073,0.73055 -1.9286,1.44858 -1.9286,1.59561 0,0.14703 0.89759,0.71595 1.99463,1.26427 2.18984,1.09452 7.2916,5.86249 7.72119,7.21603 0.1444,0.45497 0.62479,1.38493 1.06751,2.06657 1.33101,2.04926 2.64704,7.06644 2.95886,11.28019 0.21457,2.89945 0.12689,5.32387 -0.35979,9.94917 -1.05196,9.99755 -3.33395,16.25229 -8.68904,23.81589 -3.49904,4.9421 -7.52636,7.8584 -13.70853,9.92678 -8.82347,2.95208 -13.11399,6.10457 -13.47906,9.90385 -0.22026,2.2923 0.68277,4.20921 3.34256,7.09542 3.32395,3.6069 3.99024,5.55229 3.27737,9.56898 -1.54264,8.69208 -9.92439,16.52688 -22.04931,20.61048 -7.10917,2.39432 -17.94227,3.54771 -23.4105,2.49247 -3.65385,-0.7051 -7.18067,-0.73336 -8.44521,-0.0677 -0.52395,0.27582 -1.74637,1.31571 -2.71651,2.31088 -3.27347,3.35789 -10.77177,7.69858 -15.52223,8.98566 -2.95268,0.79999 -9.26538,1.00383 -12.42232,0.40112 z m 10.90872,-0.71858 c 5.14411,-1.09018 11.44124,-4.47876 15.85396,-8.53125 4.39874,-4.03964 4.92068,-4.1628 12.45318,-2.9385 3.91273,0.63595 4.85409,0.67192 8.38614,0.3204 5.15077,-0.51263 11.95175,-1.84661 15.37906,-3.01654 12.02426,-4.10456 20.39359,-12.43529 21.12947,-21.03203 0.27925,-3.26227 -0.4594,-5.06211 -3.3333,-8.12206 -2.82698,-3.01002 -3.78139,-5.02369 -3.50143,-7.38753 0.46549,-3.93029 4.10663,-6.78072 12.75764,-9.98716 6.42008,-2.37957 8.54921,-3.60749 11.64167,-6.714 3.18003,-3.19448 5.89828,-7.34125 7.98487,-12.18114 1.25775,-2.91737 2.57447,-7.35039 2.27286,-7.65201 -0.0664,-0.0664 -0.7618,1.04736 -1.54534,2.47501 -1.93401,3.52387 -6.13362,8.51079 -9.86217,11.71107 -2.85496,2.45046 -9.32254,6.23102 -12.07939,7.06089 -0.48507,0.14602 -2.15195,0.78282 -3.70417,1.41512 -1.55222,0.63229 -4.74748,1.89674 -7.10058,2.80987 -6.52039,2.5303 -8.93952,4.45226 -9.52859,7.57032 -0.34964,1.85071 0.59085,4.18119 3.19428,7.91528 1.4681,2.10569 2.67352,4.31526 3.20228,5.86987 0.81558,2.39792 0.82938,2.59863 0.3615,5.25976 -0.9607,5.46421 -3.63577,9.64458 -7.415,11.58751 -4.03941,2.0767 -11.86974,2.98154 -19.30441,2.23075 -6.00816,-0.60674 -8.63585,-1.18716 -13.68888,-3.0237 -3.77422,-1.37175 -4.43988,-1.52046 -4.87194,-1.0884 -0.27524,0.27523 -1.25596,2.27913 -2.17938,4.4531 -2.55653,6.01871 -4.73434,8.19544 -10.225,10.21991 -2.55925,0.94362 -3.30326,1.05878 -6.84043,1.05878 -4.53433,0 -6.61864,-0.49086 -9.66456,-2.27602 -3.07782,-1.80387 -5.54097,-4.50968 -6.75382,-7.41919 -0.5676,-1.36159 -1.25009,-2.52084 -1.51667,-2.5761 -0.26657,-0.0553 -1.56359,1.10025 -2.88226,2.56781 -3.20682,3.56889 -5.00618,4.41387 -11.989,5.63005 -5.26464,0.91693 -8.12299,0.74981 -15.7406,-0.92035 -8.48374,-1.86006 -16.3159,-7.18888 -20.20715,-13.74849 -0.73344,-1.23639 -1.924067,-4.07361 -2.645829,-6.30493 -1.260221,-3.89594 -1.312298,-4.25399 -1.312298,-9.0221 v -4.96516 l 2.401365,-4.68177 c 2.437842,-4.75289 2.820832,-6.32381 1.479022,-6.06657 -0.38796,0.0744 -3.684698,0.20584 -7.326081,0.29215 -5.907313,0.14001 -6.990652,0.0731 -10.054167,-0.62147 -3.679642,-0.83419 -8.718691,-3.11527 -10.734351,-4.85924 -0.641184,-0.55476 -1.43056,-1.15283 -1.754166,-1.32905 -1.168926,-0.63653 -5.630524,-6.02625 -7.234633,-8.7396 -2.153666,-3.64292 -4.071359,-8.15082 -5.047682,-11.86552 -1.117614,-4.25229 -1.38205,-11.92782 -0.54265,-15.75109 1.414533,-6.44285 4.995549,-12.59464 10.705494,-18.39084 1.033046,-1.04865 1.776091,-2.00881 1.651208,-2.13369 -0.12488,-0.12488 -0.890722,0.14976 -1.701874,0.61032 -0.811149,0.46055 -3.141695,1.72834 -5.178987,2.81731 l -3.704166,1.97993 -5.324444,-0.0576 c -4.707237,-0.0509 -5.811365,-0.18455 -9.525,-1.15287 -8.960041,-2.33632 -15.985387,-6.95999 -20.832813,-13.71093 -3.284472,-4.57425 -5.741138,-11.82083 -5.758891,-16.98737 -0.0058,-1.69277 -0.141583,-2.83614 -0.314172,-2.64583 -0.16716,0.18433 -0.673118,1.76389 -1.12435,3.51014 -0.682677,2.64193 -0.844494,4.32099 -0.963791,10.00059 -0.175043,8.3336 0.362972,11.20212 3.186037,16.98691 1.566579,3.2101 2.212347,4.10412 4.841555,6.70278 2.215532,2.18978 3.839139,3.42681 6.019311,4.58611 l 2.985445,1.5875 7.165436,0.0511 c 3.94099,0.0281 7.246426,0.13208 7.345412,0.23106 0.09899,0.099 -0.792004,1.6088 -1.979976,3.35514 -4.130216,6.07146 -5.893294,13.13627 -5.519095,22.11549 0.383779,9.20907 2.944205,16.13889 8.376701,22.67163 2.297102,2.76233 9.092851,8.53752 12.21339,10.37923 4.661757,2.75132 6.977186,3.33374 14.983019,3.76887 9.527946,0.51785 10.15534,0.8298 10.155453,5.04944 1.73e-4,6.39167 2.584944,14.25908 6.355902,19.34582 3.620919,4.88435 10.795046,10.40535 16.671116,12.8296 7.2092,2.97426 19.76128,3.54972 27.03725,1.23956 1.24462,-0.39517 3.75512,-1.35603 5.5789,-2.13523 1.82379,-0.77921 3.52595,-1.33616 3.7826,-1.23768 0.25664,0.0985 1.30324,1.62866 2.32576,3.40039 2.63986,4.57408 4.22778,5.69022 10.56786,7.42809 2.8647,0.78523 8.79143,0.87282 12.06834,0.17835 z m 21.5881,-31.53086 c 2.45176,-1.67331 2.72296,-3.18349 0.37022,-2.06154 -1.57703,0.75203 -1.86696,0.74428 -4.79651,-0.12818 -3.23085,-0.96219 -3.68598,-1.50543 -6.13822,-7.32656 -0.80312,-1.90642 -1.44223,-2.24514 -4.79257,-2.53996 -2.35997,-0.20768 -2.87199,-0.38471 -4.16321,-1.43944 -0.80975,-0.66145 -1.89933,-1.99639 -2.42127,-2.96653 -0.87159,-1.62003 -0.94706,-2.08037 -0.9254,-5.64444 0.016,-2.6288 0.20118,-4.33574 0.57417,-5.29167 2.92862,-7.50588 2.66898,-7.99719 -1.34783,-2.55031 -0.46206,0.62656 -1.39227,2.25045 -2.06713,3.60865 -3.02336,6.08466 -2.99458,11.51175 0.0841,15.87018 1.58664,2.24614 3.32198,2.98575 7.02875,2.99568 3.46131,0.009 4.17236,0.4841 5.38489,3.59591 0.95446,2.44951 1.33216,2.80348 4.37757,4.10266 2.10877,0.8996 2.7301,1.00946 4.93386,0.87237 1.9865,-0.12358 2.81339,-0.35622 3.89854,-1.09682 z m -4.49735,-26.78096 c -0.1179,-0.7276 -0.39129,-2.11666 -0.60753,-3.0868 -0.87635,-3.93161 -0.22768,-12.1184 1.17532,-14.83369 0.29593,-0.57272 0.72579,-1.73913 0.95524,-2.59201 0.22946,-0.85289 0.74075,-1.98833 1.1362,-2.5232 0.39545,-0.53487 0.64844,-1.18416 0.5622,-1.44286 -0.23014,-0.69043 -3.3539,3.67266 -4.71199,6.58145 -0.63577,1.36169 -1.57188,4.08649 -2.08026,6.05512 l -0.92432,3.57933 0.74051,2.90026 c 1.11648,4.37285 4.34038,8.97726 3.75463,5.3624 z m -27.04242,-8.81498 c 4.49006,-8.69441 10.23339,-13.17501 14.81567,-11.55828 2.19489,0.7744 4.19865,2.55991 6.16965,5.49763 1.4538,2.16685 1.76288,2.45922 1.99282,1.88505 1.99293,-4.97629 2.75065,-6.55502 4.18498,-8.71951 2.22146,-3.35232 4.4598,-5.59576 7.68124,-7.69874 3.6149,-2.35983 6.31518,-3.14702 11.63411,-3.39161 2.37684,-0.1093 4.32153,-0.28441 4.32153,-0.38912 0,-0.10472 -1.43794,-1.53217 -3.19542,-3.17212 -3.73461,-3.48485 -5.54204,-6.59468 -6.5105,-11.20184 -0.96166,-4.57477 -0.0873,-11.24117 2.13289,-16.26134 0.47864,-1.08228 0.87025,-2.10679 0.87025,-2.27667 0,-0.16988 -1.35334,-0.30888 -3.00742,-0.30888 -8.48531,0 -14.69362,-5.87549 -17.70614,-16.75694 -0.90045,-3.25248 -0.97523,-4.00956 -0.95832,-9.70139 0.0132,-4.44355 0.18465,-6.91507 0.61177,-8.81945 1.3767,-6.13809 2.5016,-9.15202 5.40294,-14.47597 3.09158,-5.67305 4.4747,-8.72674 4.23527,-9.35069 -0.16906,-0.44057 -0.68175,-0.49298 -2.96212,-0.30281 -3.56174,0.29704 -6.91717,-0.44583 -10.78102,-2.38683 -8.13654,-4.08737 -10.52495,-6.63076 -12.59262,-13.40973 -0.61098,-2.00311 -1.26293,-4.0231 -1.44879,-4.48886 l -0.33792,-0.84684 -1.25772,1.19962 c -0.69175,0.65979 -2.36845,2.52057 -3.72601,4.13507 -1.35756,1.61449 -3.36379,3.64337 -4.45829,4.50861 -5.99875,4.7422 -13.88556,7.60469 -20.95267,7.60469 -3.58432,0 -5.92189,-0.82186 -7.96358,-2.7999 -0.94391,-0.91448 -1.78451,-1.4445 -2.13257,-1.34462 -5.07483,1.45625 -9.95365,1.83652 -14.59743,1.13775 -2.52908,-0.38056 -2.53868,-0.30134 -0.45399,3.75003 2.06754,4.01805 2.77578,6.51792 2.5868,9.13058 -0.12758,1.76379 -0.32408,2.25243 -1.31827,3.27818 -1.50743,1.55527 -4.45095,3.10474 -7.7819,4.09641 -2.21313,0.65888 -8.03099,2.8729 -8.890748,3.38343 -0.136229,0.0809 0.303039,1.05523 0.97615,2.16518 0.673114,1.10995 1.45349,2.78154 1.734174,3.71464 1.271288,4.22627 0.970591,10.27016 -0.691903,13.90704 -0.463927,1.01489 -0.713567,1.92556 -0.554757,2.02371 0.15881,0.0982 1.193179,-0.13271 2.298598,-0.51303 3.195116,-1.09928 7.466846,-1.57627 10.046716,-1.12184 6.88988,1.21363 10.93852,5.67803 13.65027,15.05201 1.30299,4.50419 1.32702,4.69639 1.34507,10.75973 0.0164,5.49269 -0.0719,6.46543 -0.79978,8.81944 -1.46497,4.73762 -3.50744,9.35646 -5.22172,11.80836 -1.03484,1.48011 -0.74021,1.5973 4.0114,1.59545 3.39572,-0.001 4.9244,0.14997 6.23834,0.61736 2.20071,0.78284 5.26899,3.5548 6.39549,5.77786 1.57387,3.10587 1.96992,8.75726 0.98933,14.11708 -0.31689,1.73205 -0.48145,3.24388 -0.36571,3.35963 0.11574,0.11574 1.54488,-0.22364 3.17586,-0.75419 2.53573,-0.82487 3.41936,-0.94572 6.09834,-0.8341 3.67774,0.15324 6.22388,1.15302 8.89034,3.4909 1.45179,1.27289 4.63479,5.67818 4.64558,6.42951 0.0109,0.75842 1.08379,2.72217 1.48526,2.71852 0.25244,-0.002 1.17335,-1.38748 2.04648,-3.07817 z m -52.28092,-27.03916 c 4.04773,-1.17679 5.63265,-2.46177 8.05798,-6.533 1.08682,-1.82436 2.3701,-4.20561 2.85174,-5.29167 1.34099,-3.02385 2.91936,-8.0819 2.91036,-9.32661 -0.007,-1.02637 -0.10376,-0.93299 -1.21576,1.17834 -0.66424,1.26118 -1.46302,2.82462 -1.77508,3.47431 -0.31205,0.64968 -1.95548,2.56409 -3.65208,4.25423 -2.27451,2.26586 -3.90107,3.51798 -6.1929,4.76726 l -3.1082,1.69428 -3.45057,-0.13859 c -3.1927,-0.12824 -3.652994,-0.24274 -6.159346,-1.53209 -1.764517,-0.90772 -3.138971,-1.91847 -3.942846,-2.8995 -1.802331,-2.1995 -2.391403,-2.03809 -2.153098,0.58998 0.221365,2.44126 1.531899,5.53249 2.872532,6.77559 2.109103,1.95567 7.008888,3.70312 10.635468,3.793 0.78608,0.0195 2.73089,-0.34301 4.3218,-0.80553 z m 135.71286,-29.53844 c 1.3582,-0.55932 3.34257,-1.57015 4.40973,-2.24629 3.50044,-2.21785 3.50595,-2.21933 4.40003,-1.17989 2.54317,2.9566 5.86022,1.93469 11.6019,-3.57431 1.52503,-1.46322 3.44301,-3.53352 4.26218,-4.60067 2.04031,-2.65797 5.26981,-8.52345 6.36571,-11.56154 1.96492,-5.44721 2.89359,-10.95926 1.94518,-11.54541 -0.19403,-0.11991 -0.35278,0.0844 -0.35278,0.45406 0,1.12373 -1.96618,6.19804 -3.70942,9.57328 -1.40394,2.71829 -2.06015,3.54708 -4.46393,5.63788 -4.37494,3.80531 -8.2426,5.32506 -13.5519,5.32506 -3.84471,0 -4.23983,0.11616 -4.92912,1.4491 -0.91654,1.77241 -2.68525,3.50771 -4.53471,4.44908 -3.83454,1.95177 -11.4371,1.3959 -16.37539,-1.19732 -3.8907,-2.0431 -5.5534,-3.9731 -7.39293,-8.58142 l -0.35205,-0.88194 -0.39111,0.9931 c -1.0164,2.58085 0.51048,8.11277 3.25049,11.77665 4.65905,6.22997 12.83566,8.58605 19.81812,5.71058 z m -39.89209,-1.6661 c 0.95462,-0.12852 1.80017,-0.42876 1.879,-0.66719 0.0828,-0.25065 -0.65543,-0.78676 -1.75018,-1.27091 -8.67217,-3.83524 -13.23706,-10.38259 -14.43019,-20.69696 -0.45395,-3.92436 -0.17262,-10.1165 0.571,-12.56763 0.28697,-0.94593 0.52349,-2.00777 0.52559,-2.35964 0.005,-0.91271 3.00002,-7.8047 3.9797,-9.15924 0.45233,-0.62541 1.05248,-1.60577 1.33368,-2.17858 0.2812,-0.57281 1.29677,-1.76343 2.25683,-2.64583 2.14238,-1.96908 2.72346,-2.57185 6.72111,-6.97203 1.74625,-1.92208 4.10717,-4.18739 5.24649,-5.03401 1.94359,-1.44428 2.03071,-1.57026 1.41111,-2.0405 -0.50356,-0.38217 -1.33059,-0.45093 -3.4826,-0.28956 -9.96186,0.747 -10.62523,0.7277 -16.41008,-0.47728 -3.6992,-0.77054 -6.51611,-1.59637 -8.72765,-2.55866 -3.43691,-1.49547 -8.01786,-4.54224 -9.57146,-6.36593 -2.86607,-3.36434 -3.42971,-4.39457 -4.21649,-7.70694 -1.0809,-4.5506 -1.74371,-6.24736 -2.53902,-6.49978 -1.21777,-0.38651 -3.6248,1.07393 -6.1603,3.73768 -4.771,5.01233 -7.09085,7.06047 -10.96443,9.68023 -4.76562,3.22305 -7.88075,4.28077 -13.63984,4.63126 -3.77914,0.22999 -3.79709,0.22727 -6.05291,-0.91772 -2.19555,-1.1144 -2.30023,-1.23088 -3.53602,-3.93434 -1.60777,-3.51725 -1.94831,-3.55535 -6.34405,-0.70975 -6.90193,4.46798 -10.95701,5.99146 -16.61276,6.24132 -1.35819,0.06 -2.5885,0.11811 -2.73402,0.12912 -0.68876,0.0521 -0.16612,2.64589 0.94345,4.68219 1.62939,2.99026 2.457,5.97951 2.16356,7.81455 -0.28437,1.77839 -1.88498,4.34037 -3.78291,6.05503 -1.715896,1.55022 -6.842706,3.99293 -10.701189,5.09869 -3.157163,0.90477 -6.938338,2.57822 -7.584376,3.35665 -0.584215,0.70394 0.14171,1.60576 3.967621,4.92902 3.476487,3.01974 5.331936,5.63095 7.026173,9.88807 0.976069,2.45257 1.123297,3.2473 1.124056,6.06772 3.52e-4,1.78503 0.09765,3.18569 0.215928,3.11259 0.118283,-0.0731 0.584479,-0.87261 1.035992,-1.77668 2.639321,-5.28472 2.374198,-12.73389 -0.636584,-17.88611 -0.97838,-1.67426 -1.25868,-2.46114 -1.025264,-2.87823 0.176678,-0.31571 0.536674,-0.57402 0.799987,-0.57402 0.263313,0 1.508277,-0.46191 2.766582,-1.02648 1.258306,-0.56456 3.528134,-1.36675 5.044074,-1.78264 3.57763,-0.98151 7.11425,-2.8584 8.38044,-4.44752 0.94433,-1.18519 0.99863,-1.43088 0.88194,-3.99061 -0.114,-2.50077 -0.29536,-3.07012 -2.18024,-6.84461 -1.13075,-2.26432 -2.0004,-4.39841 -1.93257,-4.7424 0.13612,-0.6903 0.19324,-0.6925 6.54972,-0.25229 3.0826,0.21349 4.22262,0.12699 7.68446,-0.58303 l 4.06488,-0.83371 1.21247,1.32348 c 3.90414,4.2616 13.0735,3.89336 22.67199,-0.91051 3.96184,-1.98283 5.95077,-3.62323 10.84333,-8.94317 2.29506,-2.49554 4.37366,-4.5866 4.61912,-4.64682 0.61552,-0.15099 0.93461,0.57256 2.24177,5.08336 1.97163,6.80375 4.23947,9.37891 11.54242,13.10653 5.38586,2.74908 8.02253,3.34086 12.36647,2.77554 2.13996,-0.27849 2.20783,-0.26226 2.61169,0.6241 0.44587,0.97858 -0.008,2.02009 -5.2851,12.12187 -6.52301,12.4873 -6.71024,29.15539 -0.43572,38.78865 1.51098,2.3198 4.59471,5.35278 6.4006,6.29525 3.19843,1.66922 5.92858,2.1298 9.65272,1.62841 z M 52.084298,144.2565 c 0.118925,-0.19243 -0.73885,-1.45955 -1.906171,-2.81584 -1.784967,-2.07392 -2.264734,-2.93261 -3.017633,-5.40098 -0.984698,-3.22832 -1.203794,-8.0449 -0.548086,-12.04909 0.188683,-1.15222 0.285246,-2.15276 0.214588,-2.22342 -0.343655,-0.34365 -1.604956,2.47918 -2.102761,4.70604 -1.218134,5.44917 -0.482473,10.73327 1.914166,13.74905 1.177477,1.48167 4.439017,4.38411 4.926517,4.38411 0.166733,0 0.400456,-0.15744 0.51938,-0.34987 z m 23.570337,-2.86398 c 3.046765,-0.4703 6.216118,-1.8473 9.27378,-4.02921 2.606993,-1.86031 3.123827,-3.01063 0.936156,-2.0836 -4.588718,1.94448 -6.715545,2.15353 -10.321156,1.01452 -2.11478,-0.66806 -3.327577,-1.31731 -4.848493,-2.59558 -2.986967,-2.5104 -3.820796,-3.50197 -4.918739,-5.84923 -1.234736,-2.63969 -1.392477,-6.59961 -0.346629,-8.70153 l 0.64346,-1.29321 -1.948889,-3.6662 c -2.759919,-5.1919 -3.556177,-8.21431 -3.55738,-13.50295 -0.0014,-6.27183 1.10272,-10.169396 4.133028,-14.589374 1.039894,-1.516778 1.042695,-1.533366 0.217128,-1.285677 -2.889853,0.867011 -8.293386,6.077824 -10.086312,9.726584 -1.494977,3.042408 -1.979112,5.460446 -1.789684,8.938717 0.173993,3.19487 0.90872,5.19442 2.891733,7.86983 1.795414,2.4223 2.154115,2.74057 4.937221,4.3806 1.377819,0.81193 2.877771,1.70278 3.333224,1.97966 l 0.8281,0.50344 -1.654023,1.64506 c -3.911939,3.89073 -4.580375,8.56708 -2.039493,14.26816 1.200408,2.69341 4.189596,5.47753 7.205176,6.71089 2.534063,1.03642 3.518341,1.1138 7.111792,0.5591 z M 243.5036,129.03543 c 2.11062,-0.70667 3.3361,-1.92212 4.67975,-4.64145 1.8475,-3.73904 2.29072,-7.093 1.52469,-11.53761 -0.66609,-3.86469 -2.09075,-8.68345 -2.86922,-9.7048 -0.48584,-0.63742 -0.51639,-0.37693 -0.33134,2.82563 0.30275,5.2394 -0.52106,10.13668 -2.32019,13.79282 -1.72615,3.50782 -3.68021,5.41315 -6.66941,6.50306 -1.19005,0.43392 -2.16372,0.90181 -2.16372,1.03977 0,0.3975 1.16774,1.34885 2.12392,1.73036 1.2068,0.48149 4.57717,0.47714 6.02552,-0.008 z M 151.74582,91.223379 c 0,-0.06245 -0.2586,-0.872515 -0.57468,-1.800144 -0.76929,-2.257746 -0.48584,-9.52335 0.51026,-13.079366 2.39687,-8.556658 8.37585,-15.520655 16.82137,-19.592601 2.62421,-1.265246 1.11306,-1.270921 -2.46153,-0.0092 -3.49531,1.233691 -5.34927,2.241879 -8.82736,4.800337 -4.02276,2.95912 -8.00641,7.793068 -9.19239,11.1545 -0.28194,0.799106 -0.8518,2.001729 -1.26636,2.672496 -0.66857,1.08178 -0.73126,1.564464 -0.55475,4.272045 0.34531,5.297041 1.37973,8.47547 3.54799,10.901773 0.57614,0.644712 1.99745,1.128716 1.99745,0.680205 z"
           id="path2507" /><path
           style="fill:#d3d3d3;stroke-width:0.352778;fill-opacity:1"
           d="m 158.80138,317.83358 c -6.34008,-1.73787 -7.928,-2.85401 -10.56786,-7.42809 -1.02252,-1.77173 -2.06912,-3.3019 -2.32576,-3.40039 -0.25665,-0.0985 -1.95881,0.45847 -3.7826,1.23768 -1.82378,0.7792 -4.33428,1.74006 -5.5789,2.13523 -7.27597,2.31016 -19.82805,1.7347 -27.03725,-1.23956 -5.87607,-2.42425 -13.050197,-7.94525 -16.671116,-12.8296 -3.770958,-5.08674 -6.355729,-12.95415 -6.355902,-19.34582 -1.13e-4,-4.21964 -0.627507,-4.53159 -10.155453,-5.04944 -5.83747,-0.31727 -7.379247,-0.52055 -9.600163,-1.26574 -3.805432,-1.27686 -7.552091,-3.62411 -12.085634,-7.57156 -5.996345,-5.22115 -8.806802,-8.86964 -10.986803,-14.26291 -1.98472,-4.91015 -2.668093,-8.14253 -2.90051,-13.71952 -0.374199,-8.97922 1.388879,-16.04403 5.519095,-22.11549 1.187972,-1.74634 2.078966,-3.25615 1.979976,-3.35514 -0.09899,-0.099 -3.404422,-0.20296 -7.345412,-0.23106 l -7.165436,-0.0511 -2.985445,-1.5875 c -2.180172,-1.1593 -3.803779,-2.39633 -6.019311,-4.58611 -2.629208,-2.59866 -3.274976,-3.49268 -4.841555,-6.70278 -2.823065,-5.78479 -3.36108,-8.65331 -3.186037,-16.98691 0.119297,-5.6796 0.281114,-7.35866 0.963791,-10.00059 0.451232,-1.74625 0.95719,-3.32581 1.12435,-3.51014 0.172589,-0.19031 0.308355,0.95306 0.314172,2.64583 0.01775,5.16654 2.474419,12.41312 5.758891,16.98737 4.847426,6.75094 11.872772,11.37461 20.832813,13.71093 3.713635,0.96832 4.817763,1.10196 9.525,1.15287 l 5.324444,0.0576 3.704166,-1.97993 c 2.037292,-1.08897 4.367838,-2.35676 5.178987,-2.81731 0.811152,-0.46056 1.576994,-0.7352 1.701874,-0.61032 0.124883,0.12488 -0.618162,1.08504 -1.651208,2.13369 -5.709945,5.7962 -9.290961,11.94799 -10.705494,18.39084 -0.8394,3.82327 -0.574964,11.4988 0.54265,15.75109 0.976323,3.7147 2.894016,8.2226 5.047682,11.86552 1.604109,2.71335 6.065707,8.10307 7.234633,8.7396 0.323606,0.17622 1.112982,0.77429 1.754166,1.32905 2.01566,1.74397 7.054709,4.02505 10.734351,4.85924 3.063515,0.69452 4.146854,0.76148 10.054167,0.62147 3.641383,-0.0863 6.938121,-0.21778 7.326081,-0.29215 1.34181,-0.25724 0.95882,1.31368 -1.479022,6.06657 l -2.401365,4.68177 v 4.96516 c 0,4.76811 0.05208,5.12616 1.312298,9.0221 0.721762,2.23132 1.912389,5.06854 2.645829,6.30493 3.89125,6.55961 11.72341,11.88843 20.20715,13.74849 7.61761,1.67016 10.47596,1.83728 15.7406,0.92035 6.98282,-1.21618 8.78218,-2.06116 11.989,-5.63005 1.31867,-1.46756 2.61569,-2.62307 2.88226,-2.56781 0.26658,0.0553 0.94907,1.21451 1.51667,2.5761 1.21285,2.90951 3.676,5.61532 6.75382,7.41919 3.04592,1.78516 5.13023,2.27602 9.66456,2.27602 3.53717,0 4.28118,-0.11516 6.84043,-1.05878 5.49066,-2.02447 7.66847,-4.2012 10.225,-10.21991 0.92342,-2.17397 1.90414,-4.17787 2.17938,-4.4531 0.43206,-0.43206 1.09772,-0.28335 4.87194,1.0884 5.05303,1.83654 7.68072,2.41696 13.68888,3.0237 7.43467,0.75079 15.265,-0.15405 19.30441,-2.23075 3.77923,-1.94293 6.4543,-6.1233 7.415,-11.58751 0.46788,-2.66113 0.45408,-2.86184 -0.3615,-5.25976 -0.52876,-1.55461 -1.73418,-3.76418 -3.20228,-5.86987 -2.60343,-3.73409 -3.54392,-6.06457 -3.19428,-7.91528 0.58907,-3.11806 3.0082,-5.04002 9.52859,-7.57032 2.3531,-0.91313 5.54836,-2.17758 7.10058,-2.80987 1.55222,-0.6323 3.2191,-1.2691 3.70417,-1.41512 2.75685,-0.82987 9.22443,-4.61043 12.07939,-7.06089 3.72855,-3.20028 7.92816,-8.1872 9.86217,-11.71107 0.78354,-1.42765 1.47894,-2.5414 1.54534,-2.47501 0.30161,0.30162 -1.01511,4.73464 -2.27286,7.65201 -2.08659,4.83989 -4.80484,8.98666 -7.98487,12.18114 -3.09246,3.10651 -5.22159,4.33443 -11.64167,6.714 -8.65101,3.20644 -12.29215,6.05687 -12.75764,9.98716 -0.27996,2.36384 0.67445,4.37751 3.50143,7.38753 2.8739,3.05995 3.61255,4.85979 3.3333,8.12206 -0.62256,7.27289 -6.43735,14.15626 -15.94931,18.88028 -5.12621,2.54589 -12.28044,4.34436 -20.55922,5.16829 -3.53205,0.35152 -4.47341,0.31555 -8.38614,-0.3204 -7.5325,-1.2243 -8.05444,-1.10114 -12.45318,2.9385 -4.41272,4.05249 -10.70985,7.44107 -15.85396,8.53125 -3.27691,0.69447 -9.20364,0.60688 -12.06834,-0.17835 z m 24.82404,-31.12806 c -3.04541,-1.29918 -3.42311,-1.65315 -4.37757,-4.10266 -1.21253,-3.11181 -1.92358,-3.58664 -5.38489,-3.59591 -3.70677,-0.01 -5.44211,-0.74954 -7.02875,-2.99568 -4.1402,-5.86112 -2.75597,-13.66907 3.8911,-21.94828 0.5874,-0.73163 1.19758,-1.20112 1.35596,-1.0433 0.25824,0.25731 -0.12888,1.48216 -1.91624,6.06306 -0.37299,0.95593 -0.55819,2.66287 -0.57417,5.29167 -0.0217,3.56407 0.0538,4.02441 0.9254,5.64444 0.52194,0.97014 1.61152,2.30508 2.42127,2.96653 1.29122,1.05473 1.80324,1.23176 4.16321,1.43944 3.35034,0.29482 3.98945,0.63354 4.79257,2.53996 2.45224,5.82113 2.90737,6.36437 6.13822,7.32656 2.92955,0.87246 3.21948,0.88021 4.79651,0.12818 2.35274,-1.12195 2.08154,0.38823 -0.37022,2.06154 -1.08515,0.7406 -1.91204,0.97324 -3.89854,1.09682 -2.20376,0.13709 -2.82509,0.0272 -4.93386,-0.87237 z m 2.53156,-27.57502 c -0.70405,-1.1006 -1.52051,-3.10616 -1.95114,-4.79279 l -0.74051,-2.90026 0.92432,-3.57933 c 0.50838,-1.96863 1.44449,-4.69343 2.08026,-6.05512 1.35809,-2.90879 4.48185,-7.27188 4.71199,-6.58145 0.0862,0.2587 -0.16675,0.90799 -0.5622,1.44286 -0.39545,0.53487 -0.90674,1.67031 -1.1362,2.5232 -0.22945,0.85288 -0.65931,2.01929 -0.95524,2.59201 -1.403,2.71529 -2.05167,10.90208 -1.17532,14.83369 1.11475,5.00118 0.80716,5.64857 -1.19596,2.51719 z m -85.52903,-35.00834 c -2.548525,-0.55743 -5.550012,-1.96729 -6.948088,-3.26366 -1.340633,-1.2431 -2.651167,-4.33433 -2.872532,-6.77559 -0.238305,-2.62807 0.350767,-2.78948 2.153098,-0.58998 0.803875,0.98103 2.178329,1.99178 3.942846,2.8995 2.506352,1.28935 2.966646,1.40385 6.159346,1.53209 l 3.45057,0.13859 3.1082,-1.69428 c 2.29183,-1.24928 3.91839,-2.5014 6.1929,-4.76726 1.6966,-1.69014 3.34003,-3.60455 3.65208,-4.25423 0.31206,-0.64969 1.11084,-2.21313 1.77508,-3.47431 1.112,-2.11133 1.20835,-2.20471 1.21576,-1.17834 0.009,1.24471 -1.56937,6.30276 -2.91036,9.32661 -0.48164,1.08606 -1.76492,3.46731 -2.85174,5.29167 -2.42533,4.07123 -4.01025,5.35621 -8.05798,6.533 -3.24075,0.94218 -4.7296,0.99352 -8.00918,0.27619 z m 135.3716,-28.73397 c -5.52413,-0.49332 -11.4226,-5.07139 -13.61257,-10.56533 -1.43421,-3.59798 -1.79935,-6.24097 -1.1056,-8.00256 l 0.39111,-0.9931 0.35205,0.88194 c 1.83953,4.60832 3.50223,6.53832 7.39293,8.58142 4.93829,2.59322 12.54085,3.14909 16.37539,1.19732 1.84946,-0.94137 3.61817,-2.67667 4.53471,-4.44908 0.68929,-1.33294 1.08441,-1.4491 4.92912,-1.4491 5.3093,0 9.17696,-1.51975 13.5519,-5.32506 2.40378,-2.0908 3.05999,-2.91959 4.46393,-5.63788 1.74324,-3.37524 3.70942,-8.44955 3.70942,-9.57328 0,-0.36965 0.15875,-0.57397 0.35278,-0.45406 0.94841,0.58615 0.0197,6.0982 -1.94518,11.54541 -1.0959,3.03809 -4.3254,8.90357 -6.36571,11.56154 -0.81917,1.06715 -2.73715,3.13745 -4.26218,4.60067 -5.74168,5.509 -9.05873,6.53091 -11.6019,3.57431 -0.89408,-1.03944 -0.89959,-1.03796 -4.40003,1.17989 -2.72953,1.72941 -6.56684,3.239 -8.64306,3.40017 -0.97014,0.0753 -2.82284,0.0424 -4.11711,-0.0732 z m -38.03984,-3.11534 c -2.84285,-0.91739 -4.14328,-1.68196 -6.29579,-3.70154 -5.06332,-4.75064 -7.80802,-12.21688 -7.81284,-21.25276 -0.004,-7.95099 1.63063,-14.95991 4.98922,-21.38943 5.27688,-10.10178 5.73097,-11.14329 5.2851,-12.12187 -0.40386,-0.88636 -0.47173,-0.90259 -2.61169,-0.6241 -4.34394,0.56532 -6.98061,-0.0265 -12.36647,-2.77554 -7.30295,-3.72762 -9.57079,-6.30278 -11.54242,-13.10653 -1.30716,-4.5108 -1.62625,-5.23435 -2.24177,-5.08336 -0.24546,0.0602 -2.32406,2.15128 -4.61912,4.64682 -4.89256,5.31994 -6.88149,6.96034 -10.84333,8.94317 -9.59849,4.80387 -18.76785,5.17211 -22.67199,0.91051 l -1.21247,-1.32348 -4.06488,0.83371 c -3.46184,0.71002 -4.60186,0.79652 -7.68446,0.58303 -6.35648,-0.44021 -6.4136,-0.43801 -6.54972,0.25229 -0.0678,0.34399 0.80182,2.47808 1.93257,4.7424 1.88488,3.77449 2.06624,4.34384 2.18024,6.84461 0.11669,2.55973 0.0624,2.80542 -0.88194,3.99061 -1.26619,1.58912 -4.80281,3.46601 -8.38044,4.44752 -1.51594,0.41589 -3.785768,1.21808 -5.044074,1.78264 -1.258305,0.56457 -2.503269,1.02648 -2.766582,1.02648 -0.263313,0 -0.623309,0.25831 -0.799987,0.57402 -0.233416,0.41709 0.04688,1.20397 1.025264,2.87823 3.010782,5.15222 3.275905,12.60139 0.636584,17.88611 -0.451513,0.90407 -0.917709,1.70358 -1.035992,1.77668 -0.118279,0.0731 -0.215449,-1.32756 -0.215928,-3.11259 -7.06e-4,-2.82042 -0.147987,-3.61515 -1.124056,-6.06772 -1.694237,-4.25712 -3.549686,-6.86833 -7.026173,-9.88807 -3.825911,-3.32326 -4.551836,-4.22508 -3.967621,-4.92902 0.646038,-0.77843 4.427213,-2.45188 7.584376,-3.35665 3.858483,-1.10576 8.985293,-3.54847 10.701189,-5.09869 1.89793,-1.71466 3.49854,-4.27664 3.78291,-6.05503 0.29344,-1.83504 -0.53417,-4.82429 -2.16356,-7.81455 -1.10957,-2.0363 -1.63221,-4.63005 -0.94345,-4.68219 0.14552,-0.011 1.37583,-0.0691 2.73402,-0.12912 5.65575,-0.24986 9.71083,-1.77334 16.61276,-6.24132 4.39574,-2.8456 4.73628,-2.8075 6.34405,0.70975 1.23579,2.70346 1.34047,2.81994 3.53602,3.93434 2.25582,1.14499 2.27377,1.14771 6.05291,0.91772 5.75909,-0.35049 8.87422,-1.40821 13.63984,-4.63126 3.87358,-2.61976 6.19343,-4.6679 10.96443,-9.68023 2.5355,-2.66375 4.94253,-4.12419 6.1603,-3.73768 0.79531,0.25242 1.45812,1.94918 2.53902,6.49978 0.78678,3.31237 1.35042,4.3426 4.21649,7.70694 1.5536,1.82369 6.13455,4.87046 9.57146,6.36593 2.21154,0.96229 5.02845,1.78812 8.72765,2.55866 5.78485,1.20498 6.44822,1.22428 16.41008,0.47728 2.15201,-0.16137 2.97904,-0.0926 3.4826,0.28956 0.6196,0.47024 0.53248,0.59622 -1.41111,2.0405 -1.13932,0.84662 -3.50024,3.11193 -5.24649,5.03401 -3.99765,4.40018 -4.57873,5.00295 -6.72111,6.97203 -0.96006,0.8824 -1.97563,2.07302 -2.25683,2.64583 -0.2812,0.57281 -0.88135,1.55317 -1.33368,2.17858 -0.97968,1.35454 -3.97425,8.24653 -3.9797,9.15924 -0.002,0.35187 -0.23862,1.41371 -0.52559,2.35964 -0.74362,2.45113 -1.02495,8.64327 -0.571,12.56763 1.19313,10.31437 5.75802,16.86172 14.43019,20.69696 1.09475,0.48415 1.83303,1.02026 1.75018,1.27091 -0.32516,0.98358 -5.66474,1.17392 -8.37719,0.29861 z M 49.49075,143.09465 c -2.617794,-2.2345 -3.846311,-3.95889 -4.676542,-6.56415 -0.886404,-2.78153 -0.918341,-6.35169 -0.08997,-10.05729 0.497805,-2.22686 1.759106,-5.04969 2.102761,-4.70604 0.07066,0.0707 -0.02589,1.0712 -0.214588,2.22342 -0.655708,4.00419 -0.436612,8.82077 0.548086,12.04909 0.752899,2.46837 1.232666,3.32706 3.017633,5.40098 1.891598,2.19781 2.315602,3.16571 1.386791,3.16571 -0.166734,0 -1.100109,-0.68027 -2.074168,-1.51172 z m 19.052093,-2.26123 c -3.01558,-1.23336 -6.004768,-4.01748 -7.205176,-6.71089 -2.540882,-5.70108 -1.872446,-10.37743 2.039493,-14.26816 l 1.654023,-1.64506 -0.8281,-0.50344 c -0.455453,-0.27688 -1.955405,-1.16773 -3.333224,-1.97966 -2.783106,-1.64003 -3.141807,-1.9583 -4.937221,-4.3806 -1.983013,-2.67541 -2.71774,-4.67496 -2.891733,-7.86983 -0.189428,-3.478271 0.294707,-5.896309 1.789684,-8.938717 1.792926,-3.64876 7.196459,-8.859573 10.086312,-9.726584 0.825567,-0.247689 0.822766,-0.231101 -0.217128,1.285677 -3.030308,4.419978 -4.134453,8.317544 -4.133028,14.589374 0.0011,5.28864 0.797461,8.31105 3.55738,13.50295 l 1.948889,3.6662 -0.64346,1.29321 c -1.045848,2.10192 -0.888107,6.06184 0.346629,8.70153 1.097943,2.34726 1.931772,3.33883 4.918739,5.84923 1.520916,1.27827 2.733713,1.92752 4.848493,2.59558 3.605611,1.13901 5.732438,0.92996 10.321156,-1.01452 2.187671,-0.92703 1.670837,0.22329 -0.936156,2.0836 -3.057662,2.18191 -6.227015,3.55891 -9.27378,4.02921 -3.593451,0.5547 -4.577729,0.47732 -7.111792,-0.5591 z M 237.47808,129.04321 c -0.95618,-0.38151 -2.12392,-1.33286 -2.12392,-1.73036 0,-0.13796 0.97367,-0.60585 2.16372,-1.03977 2.9892,-1.08991 4.94326,-2.99524 6.66941,-6.50306 1.79913,-3.65614 2.62294,-8.55342 2.32019,-13.79282 -0.18505,-3.20256 -0.1545,-3.46305 0.33134,-2.82563 0.77847,1.02135 2.20313,5.84011 2.86922,9.7048 0.76603,4.44461 0.32281,7.79857 -1.52469,11.53761 -1.34365,2.71933 -2.56913,3.93478 -4.67975,4.64145 -1.44835,0.48492 -4.81872,0.48927 -6.02552,0.008 z M 149.74837,90.543174 c -2.16826,-2.426303 -3.20268,-5.604732 -3.54799,-10.901774 -0.17651,-2.70758 -0.11382,-3.190264 0.55475,-4.272045 0.41456,-0.670767 0.98442,-1.87339 1.26636,-2.672495 1.18598,-3.361432 5.16963,-8.19538 9.19239,-11.1545 3.47809,-2.558458 5.33205,-3.566647 8.82736,-4.800337 3.57459,-1.261676 5.08574,-1.256001 2.46153,0.0092 -8.44552,4.071946 -14.4245,11.035944 -16.82137,19.592601 -0.9961,3.556017 -1.27955,10.821621 -0.51026,13.079367 0.70189,2.059922 0.70719,1.913689 -0.0694,1.913689 -0.35423,0 -0.96326,-0.357188 -1.35339,-0.79375 z"
           id="path2505" /></g></g></g></svg>
