<?xml version="1.0" encoding="UTF-8" standalone="no"?>
<!-- Created with Inkscape (http://www.inkscape.org/) -->

<svg
   width="20.316999mm"
   height="15.153mm"
   viewBox="0 0 20.317 15.153"
   version="1.1"
   id="svg10322"
   inkscape:version="1.2.2 (b0a8486541, 2022-12-01)"
   sodipodi:docname="green_shell.svg"
   xmlns:inkscape="http://www.inkscape.org/namespaces/inkscape"
   xmlns:sodipodi="http://sodipodi.sourceforge.net/DTD/sodipodi-0.dtd"
   xmlns="http://www.w3.org/2000/svg"
   xmlns:svg="http://www.w3.org/2000/svg">
  <sodipodi:namedview
     id="namedview10324"
     pagecolor="#ffffff"
     bordercolor="#000000"
     borderopacity="0.25"
     inkscape:showpageshadow="2"
     inkscape:pageopacity="0.0"
     inkscape:pagecheckerboard="0"
     inkscape:deskcolor="#d1d1d1"
     inkscape:document-units="mm"
     showgrid="false"
     inkscape:zoom="5.9727037"
     inkscape:cx="33.987957"
     inkscape:cy="12.305985"
     inkscape:window-width="1854"
     inkscape:window-height="1131"
     inkscape:window-x="66"
     inkscape:window-y="32"
     inkscape:window-maximized="1"
     inkscape:current-layer="g5545" />
  <defs
     id="defs10319" />
  <g
     inkscape:label="Layer 1"
     inkscape:groupmode="layer"
     id="layer1"
     transform="translate(-6.7406481,-79.978365)">
    <g
       id="g5545"
       transform="translate(-6.8858184,41.18963)"
       style="stroke-width:0.5;stroke-dasharray:none">
      <g
         id="g2734"
         transform="matrix(1.1616836,0,0,1.1616836,-4.3147392,-6.0723138)">
        <path
           style="opacity:1;fill:#a89898;fill-opacity:1;stroke:none;stroke-width:0.499999;stroke-linecap:round;stroke-linejoin:round;stroke-dasharray:none;stroke-opacity:1"
           d="m 18.655042,49.449911 -0.313366,0.592032 -1.27755,0.466002 1.169153,0.377927 3.055043,0.138736 1.973525,-0.309097 1.596163,-0.114584 3.675928,0.19291 2.249778,-0.342051 1.477113,-0.203627 -0.681951,-0.672327 -0.09467,-3.558874 -0.630219,0.476067 0.120184,1.740158 -0.555799,0.382277 -0.233999,-2.511959 -0.553697,0.385044 0.164434,1.422248 -0.447153,0.36765 -0.740388,-0.03022 -0.631722,-1.030488 -1.763896,0.04258 -1.624798,0.668277 -1.385101,1.216002 -2.022235,0.687102 -2.112755,-0.427594 z"
           id="path2374" />
        <path
           style="opacity:1;fill:#9a8960;fill-opacity:1;stroke:none;stroke-width:0.499999;stroke-linecap:round;stroke-linejoin:round;stroke-dasharray:none;stroke-opacity:1"
           d="m 17.349937,41.40001 1.672746,-1.538517 2.425706,-0.606371 2.796427,0.436129 2.285104,1.701426 1.009506,1.946128 0.494191,2.874617 0.699196,0.904499 -1.307902,0.26216 -1.291134,-0.0941 -1.935543,1.026722 -1.668693,1.180474 -1.737956,0.253217 -2.053639,-0.431409 -1.740387,-1.518659 -0.997875,-2.189843 0.189946,-2.106448 z"
           id="path2070" />
        <path
           id="path364"
           style="fill:none;fill-rule:evenodd;stroke:#000000;stroke-width:0.43041;stroke-linecap:round;stroke-linejoin:round;stroke-dasharray:none"
           d="m 21.560742,45.117603 c 0.535626,-0.06098 0.567818,0.695791 0.389202,1.015613 -0.425927,0.762648 -1.494895,0.70391 -2.098934,0.210935 -0.986682,-0.805263 -0.858273,-2.315314 -0.03267,-3.182253 1.163073,-1.221302 3.143625,-1.017366 4.265574,0.145599 1.460721,1.514121 1.178734,3.975157 -0.323867,5.348894 -1.862277,1.702566 -4.808351,1.341348 -6.432213,-0.502134 -1.945787,-2.208946 -1.504709,-5.642523 0.680401,-7.515534 2.554751,-2.189855 6.469885,-1.662289 8.598853,0.858669 0.666967,0.789771 1.082688,1.880247 1.23135,3.1515 0.10574,0.904207 0.192079,2.109828 1.075861,2.373832 -1.13701,0.835128 -2.67628,-0.634788 -4.905963,1.410665"
           sodipodi:nodetypes="cssssssssscc" />
        <path
           style="opacity:1;fill:none;stroke:#000000;stroke-width:0.43041;stroke-linecap:round;stroke-linejoin:round;stroke-dasharray:none;stroke-opacity:1"
           d="m 28.107351,47.393759 c 0.597839,1.475613 1.511798,0.906642 1.632623,0.549501 0.120825,-0.357142 -0.07055,-1.536605 -0.07055,-1.536605 0,0 0.41665,-0.600759 0.562274,-0.215539 0.145623,0.385221 0.210938,1.87668 0.185265,2.187491 -0.02567,0.31081 0.550492,0.213475 0.572886,-0.24054 0.02239,-0.454016 -0.08355,-1.666141 -0.08355,-1.666141 0,0 0.504086,-1.041942 0.597036,-0.414875 0.09295,0.627066 0.101241,1.878724 0.08901,2.425983 -0.01223,0.547258 0.0123,1.155477 0.164644,1.252953 0.152343,0.09747 1.054372,0.703769 0.104168,0.650653 -0.950204,-0.05312 -1.883229,0.438021 -3.366003,0.438021 -1.482773,0 -3.779683,-0.512979 -5.557331,-0.06777 -1.998372,0.500493 -5.012781,0.178373 -5.760794,-0.163268 -0.748012,-0.341639 -0.34598,-0.13068 0.531159,-0.372278 0.877139,-0.241598 1.06066,-0.773992 1.06066,-0.773992"
           id="path1923"
           sodipodi:nodetypes="cscssscssssssssc" />
        <path
           style="opacity:0.37592;fill:#000000;fill-opacity:1;stroke:none;stroke-width:0.499999;stroke-linecap:round;stroke-linejoin:round;stroke-dasharray:none;stroke-opacity:1"
           d="m 20.217303,49.851252 c 1.133119,0.619897 3.998633,-0.127836 4.686141,-0.716206 1.02746,-0.879301 2.89941,-0.761918 3.941564,-0.663048 l -0.816535,-1.322712 -1.791604,0.113532 -1.963475,0.887166 -1.217281,1.014992 -1.834463,0.488645 z"
           id="path2463"
           sodipodi:nodetypes="csccccccc" />
      </g>
    </g>
  </g>
</svg>
