<?xml version="1.0" encoding="UTF-8" standalone="no"?>
<!-- Created with Inkscape (http://www.inkscape.org/) -->

<svg
   width="17.646999mm"
   height="16.858mm"
   viewBox="0 0 17.646999 16.857999"
   version="1.1"
   id="svg10322"
   inkscape:version="1.2.2 (b0a8486541, 2022-12-01)"
   sodipodi:docname="star.svg"
   xmlns:inkscape="http://www.inkscape.org/namespaces/inkscape"
   xmlns:sodipodi="http://sodipodi.sourceforge.net/DTD/sodipodi-0.dtd"
   xmlns="http://www.w3.org/2000/svg"
   xmlns:svg="http://www.w3.org/2000/svg">
  <sodipodi:namedview
     id="namedview10324"
     pagecolor="#ffffff"
     bordercolor="#000000"
     borderopacity="0.25"
     inkscape:showpageshadow="2"
     inkscape:pageopacity="0.0"
     inkscape:pagecheckerboard="0"
     inkscape:deskcolor="#d1d1d1"
     inkscape:document-units="mm"
     showgrid="false"
     inkscape:zoom="6.3700463"
     inkscape:cx="19.623091"
     inkscape:cy="31.004484"
     inkscape:window-width="1854"
     inkscape:window-height="1131"
     inkscape:window-x="66"
     inkscape:window-y="32"
     inkscape:window-maximized="1"
     inkscape:current-layer="g5545" />
  <defs
     id="defs10319" />
  <g
     inkscape:label="Layer 1"
     inkscape:groupmode="layer"
     id="layer1"
     transform="translate(-9.3567252,-82.017237)">
    <g
       id="g5545"
       transform="translate(-6.8858184,41.18963)"
       style="stroke-width:0.5;stroke-dasharray:none">
      <g
         id="g1792"
         transform="translate(0.50014386,0.50024421)">
        <path
           sodipodi:type="star"
           style="fill:#f8ff46;fill-opacity:1;stroke:#000000;stroke-width:1.46445642;stroke-linecap:round;stroke-linejoin:round;stroke-dasharray:none"
           id="path372"
           inkscape:flatsided="false"
           sodipodi:sides="5"
           sodipodi:cx="67.9748"
           sodipodi:cy="-20.727577"
           sodipodi:r1="23.925228"
           sodipodi:r2="14.899506"
           sodipodi:arg1="1.5707963"
           sodipodi:arg2="2.2074155"
           inkscape:rounded="0.086902392"
           inkscape:randomized="0"
           d="m 67.974801,3.1976509 c -1.292212,-0.010729 -7.812005,-11.184816 -8.857463,-11.9443839 -1.028881,-0.7475238 -13.51384,-3.374799 -13.896782,-4.587542 -0.389111,-1.232281 8.22335,-10.885956 8.622678,-12.114965 0.392995,-1.209521 -0.966382,-13.895296 0.06867,-14.634253 1.051728,-0.750863 12.894315,4.456925 14.186571,4.456923 1.271766,-10e-7 12.916584,-5.212965 13.939222,-4.456924 1.039115,0.768223 -0.254225,13.640488 0.145105,14.869496 0.392999,1.20952 8.949269,10.673506 8.546243,11.879722 -0.409519,1.225651 -13.051434,3.9733601 -14.09689,4.7329306 -1.028879,0.7475263 -7.385631,11.8095552 -8.657353,11.7989963 z"
           transform="matrix(0.36133999,0,0,-0.36133999,0.00369139,42.078655)"
           inkscape:transform-center-y="-0.80608875" />
        <g
           id="g1654"
           transform="matrix(1.0083195,0,0,0.82915699,-0.3665918,8.420111)">
          <g
             id="g1430"
             transform="translate(0,0.14130971)">
            <ellipse
               style="fill:#000000;fill-opacity:1;stroke:#000000;stroke-width:0.529167;stroke-linecap:round;stroke-linejoin:round"
               id="path1112"
               cx="22.644211"
               cy="48.752457"
               rx="0.64100534"
               ry="2.1005859" />
            <ellipse
               style="fill:#ffffff;fill-opacity:1;stroke:none;stroke-width:0.644893;stroke-linecap:round;stroke-linejoin:round"
               id="path1166"
               cx="22.627138"
               cy="47.555161"
               rx="0.41422999"
               ry="0.83670509" />
          </g>
          <g
             id="g1436"
             transform="translate(4.1651312,0.14130971)">
            <ellipse
               style="fill:#000000;fill-opacity:1;stroke:#000000;stroke-width:0.529167;stroke-linecap:round;stroke-linejoin:round"
               id="ellipse1432"
               cx="22.644211"
               cy="48.752457"
               rx="0.64100534"
               ry="2.1005859" />
            <ellipse
               style="fill:#ffffff;fill-opacity:1;stroke:none;stroke-width:0.644893;stroke-linecap:round;stroke-linejoin:round"
               id="ellipse1434"
               cx="22.627138"
               cy="47.555161"
               rx="0.41422999"
               ry="0.83670509" />
          </g>
        </g>
        <path
           style="fill:#000000;fill-opacity:1;stroke:none;stroke-width:0.529167;stroke-linecap:round;stroke-linejoin:round"
           id="path1438"
           sodipodi:type="arc"
           sodipodi:cx="24.565899"
           sodipodi:cy="51.262325"
           sodipodi:rx="1.2002038"
           sodipodi:ry="0.95411634"
           sodipodi:start="0"
           sodipodi:end="3.1415927"
           sodipodi:arc-type="slice"
           d="m 25.766103,51.262325 a 1.2002038,0.95411634 0 0 1 -0.600102,0.826289 1.2002038,0.95411634 0 0 1 -1.200204,0 1.2002038,0.95411634 0 0 1 -0.600102,-0.826289 h 1.200204 z" />
      </g>
    </g>
  </g>
</svg>
