<?xml version="1.0" encoding="UTF-8" standalone="no"?>
<!-- Created with Inkscape (http://www.inkscape.org/) -->

<svg
   width="21.483mm"
   height="18.775mm"
   viewBox="0 0 21.483 18.775"
   version="1.1"
   id="svg10322"
   inkscape:version="1.2.2 (b0a8486541, 2022-12-01)"
   sodipodi:docname="disconnected.svg"
   xml:space="preserve"
   xmlns:inkscape="http://www.inkscape.org/namespaces/inkscape"
   xmlns:sodipodi="http://sodipodi.sourceforge.net/DTD/sodipodi-0.dtd"
   xmlns="http://www.w3.org/2000/svg"
   xmlns:svg="http://www.w3.org/2000/svg"><sodipodi:namedview
     id="namedview10324"
     pagecolor="#ffffff"
     bordercolor="#000000"
     borderopacity="0.25"
     inkscape:showpageshadow="2"
     inkscape:pageopacity="0.0"
     inkscape:pagecheckerboard="0"
     inkscape:deskcolor="#d1d1d1"
     inkscape:document-units="mm"
     showgrid="false"
     inkscape:zoom="3.9641296"
     inkscape:cx="-5.5497681"
     inkscape:cy="5.423637"
     inkscape:window-width="1854"
     inkscape:window-height="1131"
     inkscape:window-x="66"
     inkscape:window-y="32"
     inkscape:window-maximized="1"
     inkscape:current-layer="g5545" /><defs
     id="defs10319" /><g
     inkscape:label="Layer 1"
     inkscape:groupmode="layer"
     id="layer1"
     transform="translate(-5.3601551,-78.447238)"><g
       id="g5545"
       transform="translate(-6.8858184,41.18963)"
       style="stroke-width:0.5;stroke-dasharray:none"><path
         style="fill:#d80808;fill-opacity:1;stroke-width:0.52916667;stroke:#000000;stroke-opacity:1;stroke-dasharray:none"
         d="m 22.681396,55.471573 c -0.225909,-0.03041 -0.454521,-0.05695 -0.508026,-0.05897 -0.06137,-0.0023 -0.09727,-0.0309 -0.09727,-0.07735 0,-0.0762 0.437703,-2.183786 0.459456,-2.212309 0.0067,-0.0087 0.15905,-0.0023 0.338471,0.01437 l 0.326217,0.03057 v 0.400124 c 0,0.660219 -0.05503,1.970914 -0.08249,1.964619 -0.0141,-0.0033 -0.210432,-0.03075 -0.436347,-0.06117 z m -6.355727,-0.911915 c -0.280657,-0.05289 -0.775031,-0.203452 -1.044223,-0.317999 -0.848096,-0.360898 -1.657221,-1.128496 -2.085814,-1.978763 -0.459525,-0.962003 -0.579919,-2.037597 -0.299969,-2.998184 0.105176,-0.417384 0.310696,-0.873858 0.581932,-1.29245 0.21921,-0.338312 3.800827,-3.959174 4.23161,-4.277987 0.568997,-0.421097 1.066388,-0.645081 1.73624,-0.781865 1.248076,-0.25486 2.52555,0.06606 3.546427,0.890889 0.247673,0.200116 0.330352,0.300039 0.44038,0.532259 0.250882,0.529517 0.152428,1.072229 -0.274293,1.511944 -0.235508,0.242695 -0.406324,0.319626 -0.760598,0.342611 l -0.30563,0.01976 -0.14247,-0.222035 c -0.591483,-0.921666 -1.855753,-1.180529 -2.774579,-0.568041 -0.104506,0.06965 -1.009437,0.949716 -2.010963,1.955674 -1.625749,1.632945 -1.835353,1.859141 -1.955315,2.110049 -0.634947,1.328049 0.323393,2.85359 1.792618,2.85359 0.341425,0 0.733313,-0.104948 1.010834,-0.270673 0.08324,-0.04972 0.688721,-0.621935 1.345539,-1.271622 1.360419,-1.345654 1.476484,-1.428324 1.9456,-1.385785 0.583946,0.05295 1.033782,0.551482 1.031534,1.143198 -0.0017,0.437478 -0.07004,0.52986 -1.330789,1.797977 -0.634891,0.638598 -1.280809,1.257758 -1.435379,1.37591 -0.361501,0.276333 -1.050606,0.615875 -1.49165,0.734985 -0.267204,0.07217 -0.493425,0.09609 -0.994432,0.105176 -0.3567,0.0064 -0.697186,0.0026 -0.756635,-0.0087 z m 9.64168,-1.439956 c -0.416149,-0.47839 -0.761664,-0.884278 -0.767814,-0.901967 -0.0061,-0.01771 0.09114,-0.132769 0.216182,-0.255734 l 0.227347,-0.223548 0.916906,0.700263 c 0.504298,0.385146 0.917517,0.709995 0.918266,0.721882 7.49e-4,0.01182 -0.16865,0.203248 -0.376455,0.425262 l -0.377812,0.403641 z m -1.053545,-2.836576 c -1.040731,-0.206814 -2.075708,-0.847738 -2.368575,-1.466794 -0.212306,-0.448751 -0.153532,-0.91235 0.16983,-1.339922 0.242491,-0.320644 0.502184,-0.463875 0.885636,-0.488485 l 0.313014,-0.02002 0.09856,0.175375 c 0.0542,0.09645 0.199934,0.274625 0.323819,0.39594 0.695479,0.681027 1.778231,0.746261 2.570556,0.154867 0.137339,-0.102513 1.030364,-0.971961 1.984509,-1.932124 1.293006,-1.301158 1.762757,-1.801273 1.844538,-1.963775 0.309829,-0.615644 0.330427,-1.243424 0.05951,-1.813884 -0.496216,-1.044887 -1.773286,-1.458644 -2.763129,-0.895225 -0.119528,0.06804 -0.697004,0.605359 -1.383559,1.287367 -1.299985,1.291373 -1.448299,1.401969 -1.880097,1.401969 -0.80592,0 -1.389666,-0.981483 -0.987954,-1.661093 0.05737,-0.09705 0.675024,-0.742127 1.372578,-1.433516 1.355708,-1.343727 1.578378,-1.520858 2.248092,-1.788326 0.61926,-0.247315 0.816608,-0.282327 1.592742,-0.282554 0.607005,-1.79e-4 0.768207,0.01464 1.080905,0.09846 0.845389,0.226935 1.700462,0.781577 2.229395,1.446067 1.172922,1.553828 1.217154,3.516554 0.205594,5.057664 -0.147424,0.221623 -0.770913,0.876379 -2.132352,2.239231 -2.098552,2.10073 -2.349888,2.312642 -3.076176,2.593659 -0.742114,0.287139 -1.667368,0.378292 -2.387465,0.235201 z m -5.912411,-9.434032 c -0.485539,-0.374535 -0.886425,-0.700428 -0.890855,-0.724209 -0.0087,-0.0462 0.66583,-0.800149 0.715135,-0.799458 0.03342,4.72e-4 1.490956,1.672214 1.515172,1.737852 0.01539,0.04199 -0.375059,0.466786 -0.429173,0.466786 -0.01515,0 -0.424736,-0.306439 -0.910279,-0.680971 z m 3.70162,-0.688497 c -0.07135,-0.009 -0.173476,-0.02581 -0.226989,-0.03757 l -0.09727,-0.0213 v -1.17208 -1.172081 l 0.16213,0.02567 c 0.08919,0.01409 0.320934,0.03866 0.515017,0.05467 0.194085,0.01592 0.372788,0.0414 0.397119,0.05641 0.02852,0.01771 -0.03934,0.426455 -0.190747,1.149432 -0.129252,0.617148 -0.234996,1.127511 -0.234996,1.134138 0,0.01367 -0.13395,0.0067 -0.324271,-0.0172 z"
         id="path335"
         sodipodi:nodetypes="ccscccscccccccccccccccccscsccscscccccccccssscccccccccsssccsscssscccssccccccsccccccccccscc" /></g></g></svg>
